%TF.GenerationSoftware,KiCad,Pcbnew,10.0.2*%
%TF.CreationDate,2026-06-18T19:51:29-05:00*%
%TF.ProjectId,shayfinder,73686179-6669-46e6-9465-722e6b696361,rev?*%
%TF.SameCoordinates,Original*%
%TF.FileFunction,Copper,L1,Top*%
%TF.FilePolarity,Positive*%
%FSLAX46Y46*%
G04 Gerber Fmt 4.6, Leading zero omitted, Abs format (unit mm)*
G04 Created by KiCad (PCBNEW 10.0.2) date 2026-06-18 19:51:29*
%MOMM*%
%LPD*%
G01*
G04 APERTURE LIST*
G04 Aperture macros list*
%AMRoundRect*
0 Rectangle with rounded corners*
0 $1 Rounding radius*
0 $2 $3 $4 $5 $6 $7 $8 $9 X,Y pos of 4 corners*
0 Add a 4 corners polygon primitive as box body*
4,1,4,$2,$3,$4,$5,$6,$7,$8,$9,$2,$3,0*
0 Add four circle primitives for the rounded corners*
1,1,$1+$1,$2,$3*
1,1,$1+$1,$4,$5*
1,1,$1+$1,$6,$7*
1,1,$1+$1,$8,$9*
0 Add four rect primitives between the rounded corners*
20,1,$1+$1,$2,$3,$4,$5,0*
20,1,$1+$1,$4,$5,$6,$7,0*
20,1,$1+$1,$6,$7,$8,$9,0*
20,1,$1+$1,$8,$9,$2,$3,0*%
G04 Aperture macros list end*
%TA.AperFunction,ComponentPad*%
%ADD10C,2.200000*%
%TD*%
%TA.AperFunction,ComponentPad*%
%ADD11R,1.800000X1.800000*%
%TD*%
%TA.AperFunction,ComponentPad*%
%ADD12C,1.800000*%
%TD*%
%TA.AperFunction,ComponentPad*%
%ADD13C,1.400000*%
%TD*%
%TA.AperFunction,SMDPad,CuDef*%
%ADD14RoundRect,0.152400X1.063600X0.609600X-1.063600X0.609600X-1.063600X-0.609600X1.063600X-0.609600X0*%
%TD*%
%TA.AperFunction,ComponentPad*%
%ADD15C,1.524000*%
%TD*%
%TA.AperFunction,SMDPad,CuDef*%
%ADD16RoundRect,0.152400X-1.063600X-0.609600X1.063600X-0.609600X1.063600X0.609600X-1.063600X0.609600X0*%
%TD*%
%TA.AperFunction,Conductor*%
%ADD17C,0.200000*%
%TD*%
G04 APERTURE END LIST*
D10*
%TO.P,SW3,1,1_1*%
%TO.N,switch3*%
X77960000Y-97920000D03*
%TO.P,SW3,2,2_2*%
%TO.N,GND*%
X71610000Y-100460000D03*
%TD*%
%TO.P,SW2,1,1_1*%
%TO.N,switch2*%
X78085000Y-78910000D03*
%TO.P,SW2,2,2_2*%
%TO.N,GND*%
X71735000Y-81450000D03*
%TD*%
D11*
%TO.P,D2,1,K_1*%
%TO.N,GND*%
X87960000Y-86970000D03*
D12*
%TO.P,D2,2,A_2*%
%TO.N,Net-(D2-A)*%
X90500000Y-86970000D03*
%TD*%
D10*
%TO.P,SW1,1,1_1*%
%TO.N,switch1*%
X78085000Y-59965000D03*
%TO.P,SW1,2,2_2*%
%TO.N,GND*%
X71735000Y-62505000D03*
%TD*%
D13*
%TO.P,R1,1*%
%TO.N,Net-(D1-A)*%
X93650000Y-80340000D03*
%TO.P,R1,2*%
%TO.N,LED1*%
X98730000Y-80340000D03*
%TD*%
%TO.P,R3,1*%
%TO.N,Net-(D3-A)*%
X93650000Y-86640000D03*
%TO.P,R3,2*%
%TO.N,LED3*%
X98730000Y-86640000D03*
%TD*%
D11*
%TO.P,D3,1,K_1*%
%TO.N,GND*%
X87960000Y-92440000D03*
D12*
%TO.P,D3,2,A_2*%
%TO.N,Net-(D3-A)*%
X90500000Y-92440000D03*
%TD*%
D14*
%TO.P,U1,1,P26_A0_D0_1*%
%TO.N,switch1*%
X87425000Y-58260000D03*
D15*
X88260000Y-58260000D03*
D14*
%TO.P,U1,2,P27_A1_D1_2*%
%TO.N,switch2*%
X87425000Y-60800000D03*
D15*
X88260000Y-60800000D03*
D14*
%TO.P,U1,3,P28_A2_D2_3*%
%TO.N,switch3*%
X87425000Y-63340000D03*
D15*
X88260000Y-63340000D03*
D14*
%TO.P,U1,4,P29_A3_D3_4*%
%TO.N,LED1*%
X87425000Y-65880000D03*
D15*
X88260000Y-65880000D03*
D14*
%TO.P,U1,5,P6_SDA_D4_5*%
%TO.N,LED2*%
X87425000Y-68420000D03*
D15*
X88260000Y-68420000D03*
D14*
%TO.P,U1,6,P7_SCL_D5_6*%
%TO.N,LED3*%
X87425000Y-70960000D03*
D15*
X88260000Y-70960000D03*
D14*
%TO.P,U1,7,P0_D6_TX_7*%
%TO.N,unconnected-(U1-P0_D6_TX-Pad7)_1*%
X87425000Y-73500000D03*
D15*
%TO.N,unconnected-(U1-P0_D6_TX-Pad7)*%
X88260000Y-73500000D03*
%TO.P,U1,8,P1_D7_RX_8*%
%TO.N,unconnected-(U1-P1_D7_RX-Pad8)*%
X103500000Y-73500000D03*
D16*
%TO.N,unconnected-(U1-P1_D7_RX-Pad8)_1*%
X104335000Y-73500000D03*
D15*
%TO.P,U1,9,P2_D8_SCK_9*%
%TO.N,unconnected-(U1-P2_D8_SCK-Pad9)*%
X103500000Y-70960000D03*
D16*
%TO.N,unconnected-(U1-P2_D8_SCK-Pad9)_1*%
X104335000Y-70960000D03*
D15*
%TO.P,U1,10,P4_D9_MISO_10*%
%TO.N,unconnected-(U1-P4_D9_MISO-Pad10)_1*%
X103500000Y-68420000D03*
D16*
%TO.N,unconnected-(U1-P4_D9_MISO-Pad10)*%
X104335000Y-68420000D03*
D15*
%TO.P,U1,11,P3_D10_MOSI_11*%
%TO.N,unconnected-(U1-P3_D10_MOSI-Pad11)_1*%
X103500000Y-65880000D03*
D16*
%TO.N,unconnected-(U1-P3_D10_MOSI-Pad11)*%
X104335000Y-65880000D03*
D15*
%TO.P,U1,12,3V3_12*%
%TO.N,unconnected-(U1-3V3-Pad12)*%
X103500000Y-63340000D03*
D16*
%TO.N,unconnected-(U1-3V3-Pad12)_1*%
X104335000Y-63340000D03*
D15*
%TO.P,U1,13,GND_13*%
%TO.N,GND*%
X103500000Y-60800000D03*
D16*
X104335000Y-60800000D03*
D15*
%TO.P,U1,14,VBUS_14*%
%TO.N,unconnected-(U1-VBUS-Pad14)_1*%
X103500000Y-58260000D03*
D16*
%TO.N,unconnected-(U1-VBUS-Pad14)*%
X104335000Y-58260000D03*
%TD*%
D13*
%TO.P,R2,1*%
%TO.N,Net-(D2-A)*%
X93650000Y-83490000D03*
%TO.P,R2,2*%
%TO.N,LED2*%
X98730000Y-83490000D03*
%TD*%
D11*
%TO.P,D1,1,K_1*%
%TO.N,GND*%
X87960000Y-81500000D03*
D12*
%TO.P,D1,2,A_2*%
%TO.N,Net-(D1-A)*%
X90500000Y-81500000D03*
%TD*%
%TO.N,switch3*%
D17*
X77960000Y-97920000D02*
X82000000Y-93880000D01*
X82000000Y-93880000D02*
X82000000Y-68765000D01*
X82000000Y-68765000D02*
X87425000Y-63340000D01*
%TO.N,switch2*%
X78085000Y-78910000D02*
X78085000Y-70140000D01*
X78085000Y-70140000D02*
X87425000Y-60800000D01*
%TO.N,Net-(D2-A)*%
X90500000Y-86970000D02*
X93650000Y-83820000D01*
X93650000Y-83820000D02*
X93650000Y-83490000D01*
%TO.N,switch1*%
X78085000Y-59965000D02*
X79790000Y-58260000D01*
X79790000Y-58260000D02*
X88260000Y-58260000D01*
%TO.N,Net-(D1-A)*%
X91660000Y-80340000D02*
X93650000Y-80340000D01*
X90500000Y-81500000D02*
X91660000Y-80340000D01*
%TO.N,LED1*%
X98730000Y-80340000D02*
X98730000Y-76350000D01*
X98730000Y-76350000D02*
X88260000Y-65880000D01*
%TO.N,Net-(D3-A)*%
X90500000Y-89790000D02*
X93650000Y-86640000D01*
X90500000Y-92440000D02*
X90500000Y-89790000D01*
%TO.N,LED3*%
X97000000Y-79700000D02*
X88260000Y-70960000D01*
X97000000Y-84910000D02*
X97000000Y-79700000D01*
X98730000Y-86640000D02*
X97000000Y-84910000D01*
%TO.N,LED2*%
X97730000Y-82490000D02*
X97730000Y-77890000D01*
X97730000Y-77890000D02*
X88260000Y-68420000D01*
X98730000Y-83490000D02*
X97730000Y-82490000D01*
%TD*%
M02*
