M48
INCH
T1C0.0276
T2C0.0350
T3C0.0354
T4C0.0591
%
G90
G05
T1
X3.687Y-3.163
X3.687Y-3.287
X3.687Y-3.411
X3.887Y-3.163
X3.887Y-3.287
X3.887Y-3.411
T2
X3.4748Y-2.2937
X3.4748Y-2.3937
X3.4748Y-2.4937
X3.4748Y-2.5937
X3.4748Y-2.6937
X3.4748Y-2.7937
X3.4748Y-2.8937
X4.0748Y-2.2937
X4.0748Y-2.3937
X4.0748Y-2.4937
X4.0748Y-2.5937
X4.0748Y-2.6937
X4.0748Y-2.7937
X4.0748Y-2.8937
T3
X3.463Y-3.2087
X3.463Y-3.424
X3.463Y-3.6394
X3.563Y-3.2087
X3.563Y-3.424
X3.563Y-3.6394
T4
X2.8193Y-3.9551
X2.8242Y-2.4608
X2.8242Y-3.2067
X3.0693Y-3.8551
X3.0742Y-2.3608
X3.0742Y-3.1067
M30
