%TF.GenerationSoftware,KiCad,Pcbnew,10.0.2*%
%TF.CreationDate,2026-06-18T19:51:29-05:00*%
%TF.ProjectId,shayfinder,73686179-6669-46e6-9465-722e6b696361,rev?*%
%TF.SameCoordinates,Original*%
%TF.FileFunction,Copper,L2,Bot*%
%TF.FilePolarity,Positive*%
%FSLAX46Y46*%
G04 Gerber Fmt 4.6, Leading zero omitted, Abs format (unit mm)*
G04 Created by KiCad (PCBNEW 10.0.2) date 2026-06-18 19:51:29*
%MOMM*%
%LPD*%
G01*
G04 APERTURE LIST*
%TA.AperFunction,ComponentPad*%
%ADD10C,2.200000*%
%TD*%
%TA.AperFunction,ComponentPad*%
%ADD11R,1.800000X1.800000*%
%TD*%
%TA.AperFunction,ComponentPad*%
%ADD12C,1.800000*%
%TD*%
%TA.AperFunction,ComponentPad*%
%ADD13C,1.400000*%
%TD*%
%TA.AperFunction,ComponentPad*%
%ADD14C,1.524000*%
%TD*%
G04 APERTURE END LIST*
D10*
%TO.P,SW3,1,1_1*%
%TO.N,switch3*%
X77960000Y-97920000D03*
%TO.P,SW3,2,2_2*%
%TO.N,GND*%
X71610000Y-100460000D03*
%TD*%
%TO.P,SW2,1,1_1*%
%TO.N,switch2*%
X78085000Y-78910000D03*
%TO.P,SW2,2,2_2*%
%TO.N,GND*%
X71735000Y-81450000D03*
%TD*%
D11*
%TO.P,D2,1,K_1*%
%TO.N,GND*%
X87960000Y-86970000D03*
D12*
%TO.P,D2,2,A_2*%
%TO.N,Net-(D2-A)*%
X90500000Y-86970000D03*
%TD*%
D10*
%TO.P,SW1,1,1_1*%
%TO.N,switch1*%
X78085000Y-59965000D03*
%TO.P,SW1,2,2_2*%
%TO.N,GND*%
X71735000Y-62505000D03*
%TD*%
D13*
%TO.P,R1,1*%
%TO.N,Net-(D1-A)*%
X93650000Y-80340000D03*
%TO.P,R1,2*%
%TO.N,LED1*%
X98730000Y-80340000D03*
%TD*%
%TO.P,R3,1*%
%TO.N,Net-(D3-A)*%
X93650000Y-86640000D03*
%TO.P,R3,2*%
%TO.N,LED3*%
X98730000Y-86640000D03*
%TD*%
D11*
%TO.P,D3,1,K_1*%
%TO.N,GND*%
X87960000Y-92440000D03*
D12*
%TO.P,D3,2,A_2*%
%TO.N,Net-(D3-A)*%
X90500000Y-92440000D03*
%TD*%
D14*
%TO.P,U1,1,P26_A0_D0_1*%
%TO.N,switch1*%
X88260000Y-58260000D03*
%TO.P,U1,2,P27_A1_D1_2*%
%TO.N,switch2*%
X88260000Y-60800000D03*
%TO.P,U1,3,P28_A2_D2_3*%
%TO.N,switch3*%
X88260000Y-63340000D03*
%TO.P,U1,4,P29_A3_D3_4*%
%TO.N,LED1*%
X88260000Y-65880000D03*
%TO.P,U1,5,P6_SDA_D4_5*%
%TO.N,LED2*%
X88260000Y-68420000D03*
%TO.P,U1,6,P7_SCL_D5_6*%
%TO.N,LED3*%
X88260000Y-70960000D03*
%TO.P,U1,7,P0_D6_TX_7*%
%TO.N,unconnected-(U1-P0_D6_TX-Pad7)*%
X88260000Y-73500000D03*
%TO.P,U1,8,P1_D7_RX_8*%
%TO.N,unconnected-(U1-P1_D7_RX-Pad8)*%
X103500000Y-73500000D03*
%TO.P,U1,9,P2_D8_SCK_9*%
%TO.N,unconnected-(U1-P2_D8_SCK-Pad9)*%
X103500000Y-70960000D03*
%TO.P,U1,10,P4_D9_MISO_10*%
%TO.N,unconnected-(U1-P4_D9_MISO-Pad10)_1*%
X103500000Y-68420000D03*
%TO.P,U1,11,P3_D10_MOSI_11*%
%TO.N,unconnected-(U1-P3_D10_MOSI-Pad11)_1*%
X103500000Y-65880000D03*
%TO.P,U1,12,3V3_12*%
%TO.N,unconnected-(U1-3V3-Pad12)*%
X103500000Y-63340000D03*
%TO.P,U1,13,GND_13*%
%TO.N,GND*%
X103500000Y-60800000D03*
%TO.P,U1,14,VBUS_14*%
%TO.N,unconnected-(U1-VBUS-Pad14)_1*%
X103500000Y-58260000D03*
%TD*%
D13*
%TO.P,R2,1*%
%TO.N,Net-(D2-A)*%
X93650000Y-83490000D03*
%TO.P,R2,2*%
%TO.N,LED2*%
X98730000Y-83490000D03*
%TD*%
D11*
%TO.P,D1,1,K_1*%
%TO.N,GND*%
X87960000Y-81500000D03*
D12*
%TO.P,D1,2,A_2*%
%TO.N,Net-(D1-A)*%
X90500000Y-81500000D03*
%TD*%
%TA.AperFunction,Conductor*%
%TO.N,GND*%
G36*
X106506922Y-54001280D02*
G01*
X106523878Y-54003190D01*
X106597268Y-54011458D01*
X106624333Y-54017636D01*
X106703539Y-54045351D01*
X106728549Y-54057395D01*
X106799606Y-54102043D01*
X106821313Y-54119355D01*
X106880644Y-54178686D01*
X106897957Y-54200395D01*
X106942602Y-54271447D01*
X106954649Y-54296464D01*
X106982362Y-54375662D01*
X106988541Y-54402734D01*
X106998720Y-54493076D01*
X106999500Y-54506959D01*
X106999500Y-86607600D01*
X106999371Y-86613246D01*
X106981102Y-87014044D01*
X106980075Y-87025288D01*
X106925809Y-87419969D01*
X106923764Y-87431073D01*
X106833821Y-87819193D01*
X106830774Y-87830065D01*
X106705902Y-88208392D01*
X106701878Y-88218941D01*
X106543116Y-88584330D01*
X106538150Y-88594470D01*
X106346804Y-88943913D01*
X106340936Y-88953559D01*
X106118600Y-89284148D01*
X106111879Y-89293220D01*
X105860401Y-89602206D01*
X105852883Y-89610630D01*
X105574324Y-89895480D01*
X105566070Y-89903184D01*
X105262776Y-90161498D01*
X105253856Y-90168420D01*
X104928318Y-90398079D01*
X104918806Y-90404161D01*
X104573723Y-90603261D01*
X104563696Y-90608453D01*
X104201926Y-90775341D01*
X104191475Y-90779596D01*
X103816046Y-90912880D01*
X103805245Y-90916169D01*
X103419228Y-91014756D01*
X103408173Y-91017049D01*
X103014787Y-91080115D01*
X103003569Y-91081392D01*
X102603385Y-91108598D01*
X102597575Y-91108857D01*
X99371619Y-91176549D01*
X99371614Y-91176549D01*
X99154318Y-91181098D01*
X99154301Y-91181100D01*
X98708129Y-91226986D01*
X98708108Y-91226988D01*
X98708106Y-91226989D01*
X98708104Y-91226989D01*
X98708099Y-91226990D01*
X98267108Y-91309054D01*
X97834272Y-91426748D01*
X97834244Y-91426757D01*
X97412449Y-91579291D01*
X97004430Y-91765677D01*
X96612951Y-91984657D01*
X96612951Y-91984658D01*
X96240590Y-92234788D01*
X95889852Y-92514387D01*
X95889846Y-92514392D01*
X95563022Y-92821629D01*
X95262304Y-93154447D01*
X95262291Y-93154462D01*
X94989672Y-93510652D01*
X94989662Y-93510665D01*
X94746949Y-93887862D01*
X94535733Y-94283600D01*
X94535729Y-94283607D01*
X94357450Y-94695190D01*
X94357440Y-94695216D01*
X94213258Y-95119956D01*
X94213249Y-95119989D01*
X94104133Y-95555028D01*
X94104125Y-95555064D01*
X94030784Y-95997573D01*
X93993711Y-96444599D01*
X93993444Y-96668878D01*
X93993444Y-96668881D01*
X93993407Y-96699204D01*
X93993407Y-96699207D01*
X93978909Y-108405053D01*
X93978532Y-108410948D01*
X93978810Y-108478763D01*
X93978714Y-108484184D01*
X93963444Y-108869300D01*
X93962540Y-108880108D01*
X93914022Y-109259711D01*
X93912178Y-109270399D01*
X93830672Y-109644324D01*
X93827901Y-109654810D01*
X93714029Y-110020186D01*
X93710352Y-110030389D01*
X93564996Y-110384401D01*
X93560442Y-110394245D01*
X93384699Y-110734215D01*
X93379302Y-110743623D01*
X93174522Y-111066938D01*
X93168323Y-111075838D01*
X92936077Y-111380017D01*
X92929124Y-111388341D01*
X92671194Y-111671054D01*
X92663541Y-111678739D01*
X92381883Y-111937841D01*
X92373587Y-111944828D01*
X92070370Y-112178322D01*
X92061496Y-112184557D01*
X91739031Y-112390665D01*
X91729645Y-112396101D01*
X91390411Y-112573239D01*
X91380586Y-112577834D01*
X91027161Y-112724653D01*
X91016973Y-112728372D01*
X90652074Y-112843746D01*
X90641600Y-112846560D01*
X90268026Y-112929604D01*
X90257345Y-112931493D01*
X89877915Y-112981578D01*
X89867111Y-112982525D01*
X89482079Y-112999381D01*
X89476656Y-112999500D01*
X66506960Y-112999500D01*
X66493077Y-112998720D01*
X66402734Y-112988541D01*
X66375662Y-112982362D01*
X66296464Y-112954649D01*
X66271447Y-112942602D01*
X66200395Y-112897957D01*
X66178686Y-112880644D01*
X66119355Y-112821313D01*
X66102042Y-112799604D01*
X66057397Y-112728552D01*
X66045351Y-112703539D01*
X66017636Y-112624333D01*
X66011458Y-112597264D01*
X66008751Y-112573239D01*
X66001280Y-112506922D01*
X66000500Y-112493040D01*
X66000500Y-102913389D01*
X69239500Y-102913389D01*
X69239500Y-103086611D01*
X69266598Y-103257701D01*
X69320127Y-103422445D01*
X69398768Y-103576788D01*
X69500586Y-103716928D01*
X69623072Y-103839414D01*
X69763212Y-103941232D01*
X69917555Y-104019873D01*
X70082299Y-104073402D01*
X70253389Y-104100500D01*
X70253390Y-104100500D01*
X70426610Y-104100500D01*
X70426611Y-104100500D01*
X70597701Y-104073402D01*
X70762445Y-104019873D01*
X70916788Y-103941232D01*
X71056928Y-103839414D01*
X71179414Y-103716928D01*
X71281232Y-103576788D01*
X71359873Y-103422445D01*
X71413402Y-103257701D01*
X71440500Y-103086611D01*
X71440500Y-102913389D01*
X71430854Y-102852486D01*
X73169500Y-102852486D01*
X73169500Y-103147513D01*
X73201571Y-103391113D01*
X73208007Y-103439993D01*
X73282212Y-103716930D01*
X73284361Y-103724951D01*
X73284364Y-103724961D01*
X73397254Y-103997500D01*
X73397258Y-103997510D01*
X73544761Y-104252993D01*
X73724352Y-104487040D01*
X73724358Y-104487047D01*
X73932952Y-104695641D01*
X73932959Y-104695647D01*
X74167006Y-104875238D01*
X74422489Y-105022741D01*
X74422490Y-105022741D01*
X74422493Y-105022743D01*
X74695048Y-105135639D01*
X74980007Y-105211993D01*
X75272494Y-105250500D01*
X75272501Y-105250500D01*
X75567499Y-105250500D01*
X75567506Y-105250500D01*
X75859993Y-105211993D01*
X76144952Y-105135639D01*
X76417507Y-105022743D01*
X76672994Y-104875238D01*
X76907042Y-104695646D01*
X77115646Y-104487042D01*
X77295238Y-104252994D01*
X77442743Y-103997507D01*
X77555639Y-103724952D01*
X77631993Y-103439993D01*
X77670500Y-103147506D01*
X77670500Y-102913389D01*
X79399500Y-102913389D01*
X79399500Y-103086611D01*
X79426598Y-103257701D01*
X79480127Y-103422445D01*
X79558768Y-103576788D01*
X79660586Y-103716928D01*
X79783072Y-103839414D01*
X79923212Y-103941232D01*
X80077555Y-104019873D01*
X80242299Y-104073402D01*
X80413389Y-104100500D01*
X80413390Y-104100500D01*
X80586610Y-104100500D01*
X80586611Y-104100500D01*
X80757701Y-104073402D01*
X80922445Y-104019873D01*
X81076788Y-103941232D01*
X81216928Y-103839414D01*
X81339414Y-103716928D01*
X81441232Y-103576788D01*
X81519873Y-103422445D01*
X81573402Y-103257701D01*
X81600500Y-103086611D01*
X81600500Y-102913389D01*
X81573402Y-102742299D01*
X81519873Y-102577555D01*
X81441232Y-102423212D01*
X81339414Y-102283072D01*
X81216928Y-102160586D01*
X81076788Y-102058768D01*
X80922445Y-101980127D01*
X80757701Y-101926598D01*
X80757699Y-101926597D01*
X80757698Y-101926597D01*
X80626271Y-101905781D01*
X80586611Y-101899500D01*
X80413389Y-101899500D01*
X80373728Y-101905781D01*
X80242302Y-101926597D01*
X80077552Y-101980128D01*
X79923211Y-102058768D01*
X79867115Y-102099525D01*
X79783072Y-102160586D01*
X79783070Y-102160588D01*
X79783069Y-102160588D01*
X79660588Y-102283069D01*
X79660588Y-102283070D01*
X79660586Y-102283072D01*
X79616859Y-102343256D01*
X79558768Y-102423211D01*
X79480128Y-102577552D01*
X79426597Y-102742302D01*
X79399500Y-102913389D01*
X77670500Y-102913389D01*
X77670500Y-102852494D01*
X77631993Y-102560007D01*
X77555639Y-102275048D01*
X77442743Y-102002493D01*
X77392604Y-101915650D01*
X77295238Y-101747006D01*
X77115647Y-101512959D01*
X77115641Y-101512952D01*
X76907047Y-101304358D01*
X76907040Y-101304352D01*
X76672993Y-101124761D01*
X76417510Y-100977258D01*
X76417500Y-100977254D01*
X76144961Y-100864364D01*
X76144954Y-100864362D01*
X76144952Y-100864361D01*
X75859993Y-100788007D01*
X75811113Y-100781571D01*
X75567513Y-100749500D01*
X75567506Y-100749500D01*
X75272494Y-100749500D01*
X75272486Y-100749500D01*
X74994085Y-100786153D01*
X74980007Y-100788007D01*
X74805861Y-100834669D01*
X74695048Y-100864361D01*
X74695038Y-100864364D01*
X74422499Y-100977254D01*
X74422489Y-100977258D01*
X74167006Y-101124761D01*
X73932959Y-101304352D01*
X73932952Y-101304358D01*
X73724358Y-101512952D01*
X73724352Y-101512959D01*
X73544761Y-101747006D01*
X73397258Y-102002489D01*
X73397254Y-102002499D01*
X73284364Y-102275038D01*
X73284361Y-102275048D01*
X73208008Y-102560004D01*
X73208006Y-102560015D01*
X73169500Y-102852486D01*
X71430854Y-102852486D01*
X71413402Y-102742299D01*
X71359873Y-102577555D01*
X71281232Y-102423212D01*
X71179414Y-102283072D01*
X71126882Y-102230540D01*
X71093397Y-102169217D01*
X71098381Y-102099525D01*
X71140253Y-102043592D01*
X71205717Y-102019175D01*
X71233961Y-102020386D01*
X71484072Y-102060000D01*
X71735928Y-102060000D01*
X71984669Y-102020602D01*
X72224184Y-101942780D01*
X72448575Y-101828446D01*
X72448581Y-101828442D01*
X72550697Y-101754250D01*
X72550698Y-101754250D01*
X71934025Y-101137578D01*
X71965258Y-101124641D01*
X72088097Y-101042563D01*
X72192563Y-100938097D01*
X72274641Y-100815258D01*
X72287578Y-100784025D01*
X72904250Y-101400698D01*
X72904250Y-101400697D01*
X72978442Y-101298581D01*
X72978446Y-101298575D01*
X73092780Y-101074184D01*
X73170602Y-100834669D01*
X73210000Y-100585928D01*
X73210000Y-100334071D01*
X73170602Y-100085330D01*
X73092780Y-99845815D01*
X72978442Y-99621416D01*
X72904250Y-99519301D01*
X72904250Y-99519300D01*
X72287577Y-100135973D01*
X72274641Y-100104742D01*
X72192563Y-99981903D01*
X72088097Y-99877437D01*
X71965258Y-99795359D01*
X71934024Y-99782421D01*
X72550698Y-99165748D01*
X72448583Y-99091557D01*
X72224184Y-98977219D01*
X71984669Y-98899397D01*
X71735928Y-98860000D01*
X71484072Y-98860000D01*
X71235330Y-98899397D01*
X70995815Y-98977219D01*
X70771413Y-99091559D01*
X70669301Y-99165747D01*
X70669300Y-99165748D01*
X71285974Y-99782421D01*
X71254742Y-99795359D01*
X71131903Y-99877437D01*
X71027437Y-99981903D01*
X70945359Y-100104742D01*
X70932421Y-100135974D01*
X70315748Y-99519300D01*
X70315747Y-99519301D01*
X70241559Y-99621413D01*
X70127219Y-99845815D01*
X70049397Y-100085330D01*
X70010000Y-100334071D01*
X70010000Y-100585928D01*
X70049397Y-100834669D01*
X70127219Y-101074184D01*
X70241557Y-101298583D01*
X70315748Y-101400697D01*
X70315748Y-101400698D01*
X70932421Y-100784024D01*
X70945359Y-100815258D01*
X71027437Y-100938097D01*
X71131903Y-101042563D01*
X71254742Y-101124641D01*
X71285974Y-101137577D01*
X70669300Y-101754250D01*
X70671598Y-101783449D01*
X70657233Y-101851827D01*
X70608181Y-101901583D01*
X70540016Y-101916921D01*
X70528583Y-101915650D01*
X70426611Y-101899500D01*
X70253389Y-101899500D01*
X70213728Y-101905781D01*
X70082302Y-101926597D01*
X69917552Y-101980128D01*
X69763211Y-102058768D01*
X69707115Y-102099525D01*
X69623072Y-102160586D01*
X69623070Y-102160588D01*
X69623069Y-102160588D01*
X69500588Y-102283069D01*
X69500588Y-102283070D01*
X69500586Y-102283072D01*
X69456859Y-102343256D01*
X69398768Y-102423211D01*
X69320128Y-102577552D01*
X69266597Y-102742302D01*
X69239500Y-102913389D01*
X66000500Y-102913389D01*
X66000500Y-97794038D01*
X76359500Y-97794038D01*
X76359500Y-98045961D01*
X76398910Y-98294785D01*
X76476760Y-98534383D01*
X76591132Y-98758848D01*
X76739201Y-98962649D01*
X76739205Y-98962654D01*
X76917345Y-99140794D01*
X76917350Y-99140798D01*
X77095117Y-99269952D01*
X77121155Y-99288870D01*
X77264184Y-99361747D01*
X77345616Y-99403239D01*
X77345618Y-99403239D01*
X77345621Y-99403241D01*
X77585215Y-99481090D01*
X77834038Y-99520500D01*
X77834039Y-99520500D01*
X78085961Y-99520500D01*
X78085962Y-99520500D01*
X78334785Y-99481090D01*
X78574379Y-99403241D01*
X78798845Y-99288870D01*
X79002656Y-99140793D01*
X79180793Y-98962656D01*
X79328870Y-98758845D01*
X79443241Y-98534379D01*
X79521090Y-98294785D01*
X79560500Y-98045962D01*
X79560500Y-97794038D01*
X79521090Y-97545215D01*
X79443241Y-97305621D01*
X79443239Y-97305618D01*
X79443239Y-97305616D01*
X79401747Y-97224184D01*
X79328870Y-97081155D01*
X79309952Y-97055117D01*
X79180798Y-96877350D01*
X79180794Y-96877345D01*
X79002653Y-96699204D01*
X79002649Y-96699201D01*
X78798848Y-96551132D01*
X78798847Y-96551131D01*
X78798845Y-96551130D01*
X78728747Y-96515413D01*
X78574383Y-96436760D01*
X78334785Y-96358910D01*
X78085962Y-96319500D01*
X77834038Y-96319500D01*
X77709626Y-96339205D01*
X77585214Y-96358910D01*
X77345616Y-96436760D01*
X77121151Y-96551132D01*
X76917350Y-96699201D01*
X76917347Y-96699204D01*
X76739205Y-96877345D01*
X76739201Y-96877350D01*
X76591132Y-97081151D01*
X76476760Y-97305616D01*
X76398910Y-97545214D01*
X76359500Y-97794038D01*
X66000500Y-97794038D01*
X66000500Y-91492155D01*
X86560000Y-91492155D01*
X86560000Y-92190000D01*
X87584722Y-92190000D01*
X87540667Y-92266306D01*
X87510000Y-92380756D01*
X87510000Y-92499244D01*
X87540667Y-92613694D01*
X87584722Y-92690000D01*
X86560000Y-92690000D01*
X86560000Y-93387844D01*
X86566401Y-93447372D01*
X86566403Y-93447379D01*
X86616645Y-93582086D01*
X86616649Y-93582093D01*
X86702809Y-93697187D01*
X86702812Y-93697190D01*
X86817906Y-93783350D01*
X86817913Y-93783354D01*
X86952620Y-93833596D01*
X86952627Y-93833598D01*
X87012155Y-93839999D01*
X87012172Y-93840000D01*
X87710000Y-93840000D01*
X87710000Y-92815277D01*
X87786306Y-92859333D01*
X87900756Y-92890000D01*
X88019244Y-92890000D01*
X88133694Y-92859333D01*
X88210000Y-92815277D01*
X88210000Y-93840000D01*
X88907828Y-93840000D01*
X88907844Y-93839999D01*
X88967372Y-93833598D01*
X88967379Y-93833596D01*
X89102086Y-93783354D01*
X89102093Y-93783350D01*
X89217187Y-93697190D01*
X89217190Y-93697187D01*
X89303350Y-93582093D01*
X89303354Y-93582086D01*
X89333213Y-93502031D01*
X89375084Y-93446097D01*
X89440548Y-93421680D01*
X89508821Y-93436531D01*
X89537076Y-93457683D01*
X89587636Y-93508243D01*
X89587641Y-93508247D01*
X89743192Y-93621260D01*
X89765978Y-93637815D01*
X89882501Y-93697187D01*
X89962393Y-93737895D01*
X89962396Y-93737896D01*
X90067221Y-93771955D01*
X90172049Y-93806015D01*
X90389778Y-93840500D01*
X90389779Y-93840500D01*
X90610221Y-93840500D01*
X90610222Y-93840500D01*
X90827951Y-93806015D01*
X91037606Y-93737895D01*
X91234022Y-93637815D01*
X91412365Y-93508242D01*
X91568242Y-93352365D01*
X91697815Y-93174022D01*
X91797895Y-92977606D01*
X91866015Y-92767951D01*
X91900500Y-92550222D01*
X91900500Y-92329778D01*
X91866015Y-92112049D01*
X91831955Y-92007221D01*
X91797896Y-91902396D01*
X91797895Y-91902393D01*
X91728233Y-91765677D01*
X91697815Y-91705978D01*
X91605772Y-91579291D01*
X91568247Y-91527641D01*
X91568243Y-91527636D01*
X91412363Y-91371756D01*
X91412358Y-91371752D01*
X91234025Y-91242187D01*
X91234024Y-91242186D01*
X91234022Y-91242185D01*
X91171096Y-91210122D01*
X91037606Y-91142104D01*
X91037603Y-91142103D01*
X90827952Y-91073985D01*
X90658023Y-91047071D01*
X90610222Y-91039500D01*
X90389778Y-91039500D01*
X90341977Y-91047071D01*
X90172047Y-91073985D01*
X89962396Y-91142103D01*
X89962393Y-91142104D01*
X89765974Y-91242187D01*
X89587641Y-91371752D01*
X89587636Y-91371756D01*
X89537075Y-91422317D01*
X89475752Y-91455801D01*
X89406060Y-91450816D01*
X89350127Y-91408945D01*
X89333213Y-91377968D01*
X89303354Y-91297913D01*
X89303350Y-91297906D01*
X89217190Y-91182812D01*
X89217187Y-91182809D01*
X89102093Y-91096649D01*
X89102086Y-91096645D01*
X88967379Y-91046403D01*
X88967372Y-91046401D01*
X88907844Y-91040000D01*
X88210000Y-91040000D01*
X88210000Y-92064722D01*
X88133694Y-92020667D01*
X88019244Y-91990000D01*
X87900756Y-91990000D01*
X87786306Y-92020667D01*
X87710000Y-92064722D01*
X87710000Y-91040000D01*
X87012155Y-91040000D01*
X86952627Y-91046401D01*
X86952620Y-91046403D01*
X86817913Y-91096645D01*
X86817906Y-91096649D01*
X86702812Y-91182809D01*
X86702809Y-91182812D01*
X86616649Y-91297906D01*
X86616645Y-91297913D01*
X86566403Y-91432620D01*
X86566401Y-91432627D01*
X86560000Y-91492155D01*
X66000500Y-91492155D01*
X66000500Y-83903389D01*
X69364500Y-83903389D01*
X69364500Y-84076611D01*
X69391598Y-84247701D01*
X69445127Y-84412445D01*
X69523768Y-84566788D01*
X69625586Y-84706928D01*
X69748072Y-84829414D01*
X69888212Y-84931232D01*
X70042555Y-85009873D01*
X70207299Y-85063402D01*
X70378389Y-85090500D01*
X70378390Y-85090500D01*
X70551610Y-85090500D01*
X70551611Y-85090500D01*
X70722701Y-85063402D01*
X70887445Y-85009873D01*
X71041788Y-84931232D01*
X71181928Y-84829414D01*
X71304414Y-84706928D01*
X71406232Y-84566788D01*
X71484873Y-84412445D01*
X71538402Y-84247701D01*
X71565500Y-84076611D01*
X71565500Y-83903389D01*
X71555854Y-83842486D01*
X73294500Y-83842486D01*
X73294500Y-84137513D01*
X73326571Y-84381113D01*
X73333007Y-84429993D01*
X73407212Y-84706930D01*
X73409361Y-84714951D01*
X73409364Y-84714961D01*
X73522254Y-84987500D01*
X73522258Y-84987510D01*
X73669761Y-85242993D01*
X73849352Y-85477040D01*
X73849358Y-85477047D01*
X74057952Y-85685641D01*
X74057959Y-85685647D01*
X74292006Y-85865238D01*
X74547489Y-86012741D01*
X74547490Y-86012741D01*
X74547493Y-86012743D01*
X74820048Y-86125639D01*
X75105007Y-86201993D01*
X75397494Y-86240500D01*
X75397501Y-86240500D01*
X75692499Y-86240500D01*
X75692506Y-86240500D01*
X75984993Y-86201993D01*
X76269952Y-86125639D01*
X76519784Y-86022155D01*
X86560000Y-86022155D01*
X86560000Y-86720000D01*
X87584722Y-86720000D01*
X87540667Y-86796306D01*
X87510000Y-86910756D01*
X87510000Y-87029244D01*
X87540667Y-87143694D01*
X87584722Y-87220000D01*
X86560000Y-87220000D01*
X86560000Y-87917844D01*
X86566401Y-87977372D01*
X86566403Y-87977379D01*
X86616645Y-88112086D01*
X86616649Y-88112093D01*
X86702809Y-88227187D01*
X86702812Y-88227190D01*
X86817906Y-88313350D01*
X86817913Y-88313354D01*
X86952620Y-88363596D01*
X86952627Y-88363598D01*
X87012155Y-88369999D01*
X87012172Y-88370000D01*
X87710000Y-88370000D01*
X87710000Y-87345277D01*
X87786306Y-87389333D01*
X87900756Y-87420000D01*
X88019244Y-87420000D01*
X88133694Y-87389333D01*
X88210000Y-87345277D01*
X88210000Y-88370000D01*
X88907828Y-88370000D01*
X88907844Y-88369999D01*
X88967372Y-88363598D01*
X88967379Y-88363596D01*
X89102086Y-88313354D01*
X89102093Y-88313350D01*
X89217187Y-88227190D01*
X89217190Y-88227187D01*
X89303350Y-88112093D01*
X89303354Y-88112086D01*
X89333213Y-88032031D01*
X89375084Y-87976097D01*
X89440548Y-87951680D01*
X89508821Y-87966531D01*
X89537076Y-87987683D01*
X89587636Y-88038243D01*
X89587641Y-88038247D01*
X89743192Y-88151260D01*
X89765978Y-88167815D01*
X89882501Y-88227187D01*
X89962393Y-88267895D01*
X89962396Y-88267896D01*
X90067221Y-88301955D01*
X90172049Y-88336015D01*
X90389778Y-88370500D01*
X90389779Y-88370500D01*
X90610221Y-88370500D01*
X90610222Y-88370500D01*
X90827951Y-88336015D01*
X91037606Y-88267895D01*
X91234022Y-88167815D01*
X91412365Y-88038242D01*
X91568242Y-87882365D01*
X91697815Y-87704022D01*
X91797895Y-87507606D01*
X91866015Y-87297951D01*
X91900500Y-87080222D01*
X91900500Y-86859778D01*
X91866015Y-86642049D01*
X91834649Y-86545513D01*
X92449500Y-86545513D01*
X92449500Y-86734486D01*
X92479059Y-86921118D01*
X92537454Y-87100836D01*
X92598172Y-87220000D01*
X92623240Y-87269199D01*
X92734310Y-87422073D01*
X92867927Y-87555690D01*
X93020801Y-87666760D01*
X93093932Y-87704022D01*
X93189163Y-87752545D01*
X93189165Y-87752545D01*
X93189168Y-87752547D01*
X93285497Y-87783846D01*
X93368881Y-87810940D01*
X93555514Y-87840500D01*
X93555519Y-87840500D01*
X93744486Y-87840500D01*
X93931118Y-87810940D01*
X94110832Y-87752547D01*
X94279199Y-87666760D01*
X94432073Y-87555690D01*
X94565690Y-87422073D01*
X94676760Y-87269199D01*
X94762547Y-87100832D01*
X94820940Y-86921118D01*
X94830655Y-86859778D01*
X94850500Y-86734486D01*
X94850500Y-86545513D01*
X97529500Y-86545513D01*
X97529500Y-86734486D01*
X97559059Y-86921118D01*
X97617454Y-87100836D01*
X97678172Y-87220000D01*
X97703240Y-87269199D01*
X97814310Y-87422073D01*
X97947927Y-87555690D01*
X98100801Y-87666760D01*
X98173932Y-87704022D01*
X98269163Y-87752545D01*
X98269165Y-87752545D01*
X98269168Y-87752547D01*
X98365497Y-87783846D01*
X98448881Y-87810940D01*
X98635514Y-87840500D01*
X98635519Y-87840500D01*
X98824486Y-87840500D01*
X99011118Y-87810940D01*
X99190832Y-87752547D01*
X99359199Y-87666760D01*
X99512073Y-87555690D01*
X99645690Y-87422073D01*
X99756760Y-87269199D01*
X99842547Y-87100832D01*
X99900940Y-86921118D01*
X99910655Y-86859778D01*
X99930500Y-86734486D01*
X99930500Y-86545513D01*
X99900940Y-86358881D01*
X99861006Y-86235978D01*
X99842547Y-86179168D01*
X99842545Y-86179165D01*
X99842545Y-86179163D01*
X99780626Y-86057641D01*
X99756760Y-86010801D01*
X99645690Y-85857927D01*
X99512073Y-85724310D01*
X99359199Y-85613240D01*
X99341035Y-85603985D01*
X99190836Y-85527454D01*
X99011118Y-85469059D01*
X98824486Y-85439500D01*
X98824481Y-85439500D01*
X98635519Y-85439500D01*
X98635514Y-85439500D01*
X98448881Y-85469059D01*
X98269163Y-85527454D01*
X98100800Y-85613240D01*
X98019783Y-85672103D01*
X97947927Y-85724310D01*
X97947925Y-85724312D01*
X97947924Y-85724312D01*
X97814312Y-85857924D01*
X97814312Y-85857925D01*
X97814310Y-85857927D01*
X97782469Y-85901752D01*
X97703240Y-86010800D01*
X97617454Y-86179163D01*
X97559059Y-86358881D01*
X97529500Y-86545513D01*
X94850500Y-86545513D01*
X94820940Y-86358881D01*
X94781006Y-86235978D01*
X94762547Y-86179168D01*
X94762545Y-86179165D01*
X94762545Y-86179163D01*
X94700626Y-86057641D01*
X94676760Y-86010801D01*
X94565690Y-85857927D01*
X94432073Y-85724310D01*
X94279199Y-85613240D01*
X94261035Y-85603985D01*
X94110836Y-85527454D01*
X93931118Y-85469059D01*
X93744486Y-85439500D01*
X93744481Y-85439500D01*
X93555519Y-85439500D01*
X93555514Y-85439500D01*
X93368881Y-85469059D01*
X93189163Y-85527454D01*
X93020800Y-85613240D01*
X92939783Y-85672103D01*
X92867927Y-85724310D01*
X92867925Y-85724312D01*
X92867924Y-85724312D01*
X92734312Y-85857924D01*
X92734312Y-85857925D01*
X92734310Y-85857927D01*
X92702469Y-85901752D01*
X92623240Y-86010800D01*
X92537454Y-86179163D01*
X92479059Y-86358881D01*
X92449500Y-86545513D01*
X91834649Y-86545513D01*
X91797895Y-86432394D01*
X91797895Y-86432393D01*
X91760438Y-86358881D01*
X91697815Y-86235978D01*
X91673122Y-86201991D01*
X91568247Y-86057641D01*
X91568243Y-86057636D01*
X91412363Y-85901756D01*
X91412358Y-85901752D01*
X91234025Y-85772187D01*
X91234024Y-85772186D01*
X91234022Y-85772185D01*
X91140063Y-85724310D01*
X91037606Y-85672104D01*
X91037603Y-85672103D01*
X90827952Y-85603985D01*
X90719086Y-85586742D01*
X90610222Y-85569500D01*
X90389778Y-85569500D01*
X90317201Y-85580995D01*
X90172047Y-85603985D01*
X89962396Y-85672103D01*
X89962393Y-85672104D01*
X89765974Y-85772187D01*
X89587641Y-85901752D01*
X89587636Y-85901756D01*
X89537075Y-85952317D01*
X89475752Y-85985801D01*
X89406060Y-85980816D01*
X89350127Y-85938945D01*
X89333213Y-85907968D01*
X89303354Y-85827913D01*
X89303350Y-85827906D01*
X89217190Y-85712812D01*
X89217187Y-85712809D01*
X89102093Y-85626649D01*
X89102086Y-85626645D01*
X88967379Y-85576403D01*
X88967372Y-85576401D01*
X88907844Y-85570000D01*
X88210000Y-85570000D01*
X88210000Y-86594722D01*
X88133694Y-86550667D01*
X88019244Y-86520000D01*
X87900756Y-86520000D01*
X87786306Y-86550667D01*
X87710000Y-86594722D01*
X87710000Y-85570000D01*
X87012155Y-85570000D01*
X86952627Y-85576401D01*
X86952620Y-85576403D01*
X86817913Y-85626645D01*
X86817906Y-85626649D01*
X86702812Y-85712809D01*
X86702809Y-85712812D01*
X86616649Y-85827906D01*
X86616645Y-85827913D01*
X86566403Y-85962620D01*
X86566401Y-85962627D01*
X86560000Y-86022155D01*
X76519784Y-86022155D01*
X76542507Y-86012743D01*
X76797994Y-85865238D01*
X77032042Y-85685646D01*
X77240646Y-85477042D01*
X77420238Y-85242994D01*
X77567743Y-84987507D01*
X77680639Y-84714952D01*
X77756993Y-84429993D01*
X77795500Y-84137506D01*
X77795500Y-83903389D01*
X79524500Y-83903389D01*
X79524500Y-84076611D01*
X79551598Y-84247701D01*
X79605127Y-84412445D01*
X79683768Y-84566788D01*
X79785586Y-84706928D01*
X79908072Y-84829414D01*
X80048212Y-84931232D01*
X80202555Y-85009873D01*
X80367299Y-85063402D01*
X80538389Y-85090500D01*
X80538390Y-85090500D01*
X80711610Y-85090500D01*
X80711611Y-85090500D01*
X80882701Y-85063402D01*
X81047445Y-85009873D01*
X81201788Y-84931232D01*
X81341928Y-84829414D01*
X81464414Y-84706928D01*
X81566232Y-84566788D01*
X81644873Y-84412445D01*
X81698402Y-84247701D01*
X81725500Y-84076611D01*
X81725500Y-83903389D01*
X81698402Y-83732299D01*
X81644873Y-83567555D01*
X81566232Y-83413212D01*
X81566231Y-83413211D01*
X81553373Y-83395513D01*
X92449500Y-83395513D01*
X92449500Y-83584486D01*
X92479059Y-83771118D01*
X92537454Y-83950836D01*
X92601540Y-84076610D01*
X92623240Y-84119199D01*
X92734310Y-84272073D01*
X92867927Y-84405690D01*
X93020801Y-84516760D01*
X93100347Y-84557290D01*
X93189163Y-84602545D01*
X93189165Y-84602545D01*
X93189168Y-84602547D01*
X93285497Y-84633846D01*
X93368881Y-84660940D01*
X93555514Y-84690500D01*
X93555519Y-84690500D01*
X93744486Y-84690500D01*
X93931118Y-84660940D01*
X94110832Y-84602547D01*
X94279199Y-84516760D01*
X94432073Y-84405690D01*
X94565690Y-84272073D01*
X94676760Y-84119199D01*
X94762547Y-83950832D01*
X94820940Y-83771118D01*
X94827088Y-83732299D01*
X94850500Y-83584486D01*
X94850500Y-83395513D01*
X97529500Y-83395513D01*
X97529500Y-83584486D01*
X97559059Y-83771118D01*
X97617454Y-83950836D01*
X97681540Y-84076610D01*
X97703240Y-84119199D01*
X97814310Y-84272073D01*
X97947927Y-84405690D01*
X98100801Y-84516760D01*
X98180347Y-84557290D01*
X98269163Y-84602545D01*
X98269165Y-84602545D01*
X98269168Y-84602547D01*
X98365497Y-84633846D01*
X98448881Y-84660940D01*
X98635514Y-84690500D01*
X98635519Y-84690500D01*
X98824486Y-84690500D01*
X99011118Y-84660940D01*
X99190832Y-84602547D01*
X99359199Y-84516760D01*
X99512073Y-84405690D01*
X99645690Y-84272073D01*
X99756760Y-84119199D01*
X99842547Y-83950832D01*
X99900940Y-83771118D01*
X99907088Y-83732299D01*
X99930500Y-83584486D01*
X99930500Y-83395513D01*
X99900940Y-83208881D01*
X99862158Y-83089525D01*
X99842547Y-83029168D01*
X99842545Y-83029165D01*
X99842545Y-83029163D01*
X99780259Y-82906921D01*
X99756760Y-82860801D01*
X99645690Y-82707927D01*
X99512073Y-82574310D01*
X99359199Y-82463240D01*
X99328983Y-82447844D01*
X99190836Y-82377454D01*
X99011118Y-82319059D01*
X98824486Y-82289500D01*
X98824481Y-82289500D01*
X98635519Y-82289500D01*
X98635514Y-82289500D01*
X98448881Y-82319059D01*
X98269163Y-82377454D01*
X98100800Y-82463240D01*
X98040059Y-82507372D01*
X97947927Y-82574310D01*
X97947925Y-82574312D01*
X97947924Y-82574312D01*
X97814312Y-82707924D01*
X97814312Y-82707925D01*
X97814310Y-82707927D01*
X97793183Y-82737006D01*
X97703240Y-82860800D01*
X97617454Y-83029163D01*
X97559059Y-83208881D01*
X97529500Y-83395513D01*
X94850500Y-83395513D01*
X94820940Y-83208881D01*
X94782158Y-83089525D01*
X94762547Y-83029168D01*
X94762545Y-83029165D01*
X94762545Y-83029163D01*
X94700259Y-82906921D01*
X94676760Y-82860801D01*
X94565690Y-82707927D01*
X94432073Y-82574310D01*
X94279199Y-82463240D01*
X94248983Y-82447844D01*
X94110836Y-82377454D01*
X93931118Y-82319059D01*
X93744486Y-82289500D01*
X93744481Y-82289500D01*
X93555519Y-82289500D01*
X93555514Y-82289500D01*
X93368881Y-82319059D01*
X93189163Y-82377454D01*
X93020800Y-82463240D01*
X92960059Y-82507372D01*
X92867927Y-82574310D01*
X92867925Y-82574312D01*
X92867924Y-82574312D01*
X92734312Y-82707924D01*
X92734312Y-82707925D01*
X92734310Y-82707927D01*
X92713183Y-82737006D01*
X92623240Y-82860800D01*
X92537454Y-83029163D01*
X92479059Y-83208881D01*
X92449500Y-83395513D01*
X81553373Y-83395513D01*
X81550937Y-83392160D01*
X81464414Y-83273072D01*
X81341928Y-83150586D01*
X81201788Y-83048768D01*
X81172003Y-83033592D01*
X81047447Y-82970128D01*
X81047446Y-82970127D01*
X81047445Y-82970127D01*
X80882701Y-82916598D01*
X80882699Y-82916597D01*
X80882698Y-82916597D01*
X80751271Y-82895781D01*
X80711611Y-82889500D01*
X80538389Y-82889500D01*
X80498728Y-82895781D01*
X80367302Y-82916597D01*
X80202552Y-82970128D01*
X80048211Y-83048768D01*
X79992115Y-83089525D01*
X79908072Y-83150586D01*
X79908070Y-83150588D01*
X79908069Y-83150588D01*
X79785588Y-83273069D01*
X79785588Y-83273070D01*
X79785586Y-83273072D01*
X79741859Y-83333256D01*
X79683768Y-83413211D01*
X79605128Y-83567552D01*
X79551597Y-83732302D01*
X79524500Y-83903389D01*
X77795500Y-83903389D01*
X77795500Y-83842494D01*
X77756993Y-83550007D01*
X77680639Y-83265048D01*
X77567743Y-82992493D01*
X77517604Y-82905650D01*
X77420238Y-82737006D01*
X77240647Y-82502959D01*
X77240641Y-82502952D01*
X77032047Y-82294358D01*
X77032040Y-82294352D01*
X76797993Y-82114761D01*
X76542510Y-81967258D01*
X76542500Y-81967254D01*
X76269961Y-81854364D01*
X76269954Y-81854362D01*
X76269952Y-81854361D01*
X75984993Y-81778007D01*
X75936113Y-81771571D01*
X75692513Y-81739500D01*
X75692506Y-81739500D01*
X75397494Y-81739500D01*
X75397486Y-81739500D01*
X75119085Y-81776153D01*
X75105007Y-81778007D01*
X74820048Y-81854361D01*
X74820038Y-81854364D01*
X74547499Y-81967254D01*
X74547489Y-81967258D01*
X74292006Y-82114761D01*
X74057959Y-82294352D01*
X74057952Y-82294358D01*
X73849358Y-82502952D01*
X73849352Y-82502959D01*
X73669761Y-82737006D01*
X73522258Y-82992489D01*
X73522254Y-82992499D01*
X73409364Y-83265038D01*
X73409361Y-83265048D01*
X73333008Y-83550004D01*
X73333006Y-83550015D01*
X73294500Y-83842486D01*
X71555854Y-83842486D01*
X71538402Y-83732299D01*
X71484873Y-83567555D01*
X71406232Y-83413212D01*
X71304414Y-83273072D01*
X71251882Y-83220540D01*
X71218397Y-83159217D01*
X71223381Y-83089525D01*
X71265253Y-83033592D01*
X71330717Y-83009175D01*
X71358961Y-83010386D01*
X71609072Y-83050000D01*
X71860928Y-83050000D01*
X72109669Y-83010602D01*
X72349184Y-82932780D01*
X72573575Y-82818446D01*
X72573581Y-82818442D01*
X72675697Y-82744250D01*
X72675698Y-82744250D01*
X72059025Y-82127578D01*
X72090258Y-82114641D01*
X72213097Y-82032563D01*
X72317563Y-81928097D01*
X72399641Y-81805258D01*
X72412577Y-81774025D01*
X73029250Y-82390698D01*
X73029250Y-82390697D01*
X73103442Y-82288581D01*
X73103446Y-82288575D01*
X73217780Y-82064184D01*
X73295602Y-81824669D01*
X73335000Y-81575928D01*
X73335000Y-81324071D01*
X73295602Y-81075330D01*
X73217780Y-80835815D01*
X73103442Y-80611416D01*
X73060386Y-80552155D01*
X86560000Y-80552155D01*
X86560000Y-81250000D01*
X87584722Y-81250000D01*
X87540667Y-81326306D01*
X87510000Y-81440756D01*
X87510000Y-81559244D01*
X87540667Y-81673694D01*
X87584722Y-81750000D01*
X86560000Y-81750000D01*
X86560000Y-82447844D01*
X86566401Y-82507372D01*
X86566403Y-82507379D01*
X86616645Y-82642086D01*
X86616649Y-82642093D01*
X86702809Y-82757187D01*
X86702812Y-82757190D01*
X86817906Y-82843350D01*
X86817913Y-82843354D01*
X86952620Y-82893596D01*
X86952627Y-82893598D01*
X87012155Y-82899999D01*
X87012172Y-82900000D01*
X87710000Y-82900000D01*
X87710000Y-81875277D01*
X87786306Y-81919333D01*
X87900756Y-81950000D01*
X88019244Y-81950000D01*
X88133694Y-81919333D01*
X88210000Y-81875277D01*
X88210000Y-82900000D01*
X88907828Y-82900000D01*
X88907844Y-82899999D01*
X88967372Y-82893598D01*
X88967379Y-82893596D01*
X89102086Y-82843354D01*
X89102093Y-82843350D01*
X89217187Y-82757190D01*
X89217190Y-82757187D01*
X89303350Y-82642093D01*
X89303354Y-82642086D01*
X89333213Y-82562031D01*
X89375084Y-82506097D01*
X89440548Y-82481680D01*
X89508821Y-82496531D01*
X89537076Y-82517683D01*
X89587636Y-82568243D01*
X89587641Y-82568247D01*
X89743192Y-82681260D01*
X89765978Y-82697815D01*
X89857111Y-82744250D01*
X89962393Y-82797895D01*
X89962396Y-82797896D01*
X90025632Y-82818442D01*
X90172049Y-82866015D01*
X90389778Y-82900500D01*
X90389779Y-82900500D01*
X90610221Y-82900500D01*
X90610222Y-82900500D01*
X90827951Y-82866015D01*
X91037606Y-82797895D01*
X91234022Y-82697815D01*
X91412365Y-82568242D01*
X91568242Y-82412365D01*
X91697815Y-82234022D01*
X91797895Y-82037606D01*
X91866015Y-81827951D01*
X91900500Y-81610222D01*
X91900500Y-81389778D01*
X91866015Y-81172049D01*
X91831955Y-81067221D01*
X91797896Y-80962396D01*
X91797895Y-80962393D01*
X91715576Y-80800836D01*
X91697815Y-80765978D01*
X91670820Y-80728822D01*
X91568247Y-80587641D01*
X91568243Y-80587636D01*
X91412363Y-80431756D01*
X91412358Y-80431752D01*
X91287423Y-80340981D01*
X91287400Y-80340966D01*
X91234021Y-80302184D01*
X91122800Y-80245513D01*
X92449500Y-80245513D01*
X92449500Y-80434486D01*
X92479059Y-80621118D01*
X92537454Y-80800836D01*
X92619772Y-80962393D01*
X92623240Y-80969199D01*
X92734310Y-81122073D01*
X92867927Y-81255690D01*
X93020801Y-81366760D01*
X93039193Y-81376131D01*
X93189163Y-81452545D01*
X93189165Y-81452545D01*
X93189168Y-81452547D01*
X93285497Y-81483846D01*
X93368881Y-81510940D01*
X93555514Y-81540500D01*
X93555519Y-81540500D01*
X93744486Y-81540500D01*
X93931118Y-81510940D01*
X94110832Y-81452547D01*
X94279199Y-81366760D01*
X94432073Y-81255690D01*
X94565690Y-81122073D01*
X94676760Y-80969199D01*
X94762547Y-80800832D01*
X94820940Y-80621118D01*
X94831863Y-80552155D01*
X94850500Y-80434486D01*
X94850500Y-80245513D01*
X97529500Y-80245513D01*
X97529500Y-80434486D01*
X97559059Y-80621118D01*
X97617454Y-80800836D01*
X97699772Y-80962393D01*
X97703240Y-80969199D01*
X97814310Y-81122073D01*
X97947927Y-81255690D01*
X98100801Y-81366760D01*
X98119193Y-81376131D01*
X98269163Y-81452545D01*
X98269165Y-81452545D01*
X98269168Y-81452547D01*
X98365497Y-81483846D01*
X98448881Y-81510940D01*
X98635514Y-81540500D01*
X98635519Y-81540500D01*
X98824486Y-81540500D01*
X99011118Y-81510940D01*
X99190832Y-81452547D01*
X99359199Y-81366760D01*
X99512073Y-81255690D01*
X99645690Y-81122073D01*
X99756760Y-80969199D01*
X99842547Y-80800832D01*
X99900940Y-80621118D01*
X99911863Y-80552155D01*
X99930500Y-80434486D01*
X99930500Y-80245513D01*
X99900940Y-80058881D01*
X99866424Y-79952654D01*
X99842547Y-79879168D01*
X99842545Y-79879165D01*
X99842545Y-79879163D01*
X99756759Y-79710800D01*
X99645690Y-79557927D01*
X99512073Y-79424310D01*
X99359199Y-79313240D01*
X99303353Y-79284785D01*
X99190836Y-79227454D01*
X99011118Y-79169059D01*
X98824486Y-79139500D01*
X98824481Y-79139500D01*
X98635519Y-79139500D01*
X98635514Y-79139500D01*
X98448881Y-79169059D01*
X98269163Y-79227454D01*
X98100800Y-79313240D01*
X98013579Y-79376610D01*
X97947927Y-79424310D01*
X97947925Y-79424312D01*
X97947924Y-79424312D01*
X97814312Y-79557924D01*
X97814312Y-79557925D01*
X97814310Y-79557927D01*
X97766610Y-79623579D01*
X97703240Y-79710800D01*
X97617454Y-79879163D01*
X97559059Y-80058881D01*
X97529500Y-80245513D01*
X94850500Y-80245513D01*
X94820940Y-80058881D01*
X94786424Y-79952654D01*
X94762547Y-79879168D01*
X94762545Y-79879165D01*
X94762545Y-79879163D01*
X94676759Y-79710800D01*
X94565690Y-79557927D01*
X94432073Y-79424310D01*
X94279199Y-79313240D01*
X94223353Y-79284785D01*
X94110836Y-79227454D01*
X93931118Y-79169059D01*
X93744486Y-79139500D01*
X93744481Y-79139500D01*
X93555519Y-79139500D01*
X93555514Y-79139500D01*
X93368881Y-79169059D01*
X93189163Y-79227454D01*
X93020800Y-79313240D01*
X92933579Y-79376610D01*
X92867927Y-79424310D01*
X92867925Y-79424312D01*
X92867924Y-79424312D01*
X92734312Y-79557924D01*
X92734312Y-79557925D01*
X92734310Y-79557927D01*
X92686610Y-79623579D01*
X92623240Y-79710800D01*
X92537454Y-79879163D01*
X92479059Y-80058881D01*
X92449500Y-80245513D01*
X91122800Y-80245513D01*
X91037606Y-80202104D01*
X91037603Y-80202103D01*
X90827952Y-80133985D01*
X90719086Y-80116742D01*
X90610222Y-80099500D01*
X90389778Y-80099500D01*
X90317201Y-80110995D01*
X90172047Y-80133985D01*
X89962396Y-80202103D01*
X89962393Y-80202104D01*
X89765974Y-80302187D01*
X89587641Y-80431752D01*
X89587636Y-80431756D01*
X89537075Y-80482317D01*
X89475752Y-80515801D01*
X89406060Y-80510816D01*
X89350127Y-80468945D01*
X89333213Y-80437968D01*
X89303354Y-80357913D01*
X89303350Y-80357906D01*
X89217190Y-80242812D01*
X89217187Y-80242809D01*
X89102093Y-80156649D01*
X89102086Y-80156645D01*
X88967379Y-80106403D01*
X88967372Y-80106401D01*
X88907844Y-80100000D01*
X88210000Y-80100000D01*
X88210000Y-81124722D01*
X88133694Y-81080667D01*
X88019244Y-81050000D01*
X87900756Y-81050000D01*
X87786306Y-81080667D01*
X87710000Y-81124722D01*
X87710000Y-80100000D01*
X87012155Y-80100000D01*
X86952627Y-80106401D01*
X86952620Y-80106403D01*
X86817913Y-80156645D01*
X86817906Y-80156649D01*
X86702812Y-80242809D01*
X86702809Y-80242812D01*
X86616649Y-80357906D01*
X86616645Y-80357913D01*
X86566403Y-80492620D01*
X86566401Y-80492627D01*
X86560000Y-80552155D01*
X73060386Y-80552155D01*
X73029250Y-80509301D01*
X73029250Y-80509300D01*
X72412577Y-81125973D01*
X72399641Y-81094742D01*
X72317563Y-80971903D01*
X72213097Y-80867437D01*
X72090258Y-80785359D01*
X72059024Y-80772421D01*
X72675698Y-80155748D01*
X72573583Y-80081557D01*
X72349184Y-79967219D01*
X72109669Y-79889397D01*
X71860928Y-79850000D01*
X71609072Y-79850000D01*
X71360330Y-79889397D01*
X71120815Y-79967219D01*
X70896413Y-80081559D01*
X70794301Y-80155747D01*
X70794300Y-80155748D01*
X71410974Y-80772421D01*
X71379742Y-80785359D01*
X71256903Y-80867437D01*
X71152437Y-80971903D01*
X71070359Y-81094742D01*
X71057421Y-81125974D01*
X70440748Y-80509300D01*
X70440747Y-80509301D01*
X70366559Y-80611413D01*
X70252219Y-80835815D01*
X70174397Y-81075330D01*
X70135000Y-81324071D01*
X70135000Y-81575928D01*
X70174397Y-81824669D01*
X70252219Y-82064184D01*
X70366557Y-82288583D01*
X70440748Y-82390697D01*
X70440748Y-82390698D01*
X71057421Y-81774024D01*
X71070359Y-81805258D01*
X71152437Y-81928097D01*
X71256903Y-82032563D01*
X71379742Y-82114641D01*
X71410974Y-82127577D01*
X70794300Y-82744250D01*
X70796598Y-82773449D01*
X70782233Y-82841827D01*
X70733181Y-82891583D01*
X70665016Y-82906921D01*
X70653583Y-82905650D01*
X70551611Y-82889500D01*
X70378389Y-82889500D01*
X70338728Y-82895781D01*
X70207302Y-82916597D01*
X70042552Y-82970128D01*
X69888211Y-83048768D01*
X69832115Y-83089525D01*
X69748072Y-83150586D01*
X69748070Y-83150588D01*
X69748069Y-83150588D01*
X69625588Y-83273069D01*
X69625588Y-83273070D01*
X69625586Y-83273072D01*
X69581859Y-83333256D01*
X69523768Y-83413211D01*
X69445128Y-83567552D01*
X69391597Y-83732302D01*
X69364500Y-83903389D01*
X66000500Y-83903389D01*
X66000500Y-78784038D01*
X76484500Y-78784038D01*
X76484500Y-79035961D01*
X76523910Y-79284785D01*
X76601760Y-79524383D01*
X76716132Y-79748848D01*
X76864201Y-79952649D01*
X76864205Y-79952654D01*
X77042345Y-80130794D01*
X77042350Y-80130798D01*
X77196521Y-80242809D01*
X77246155Y-80278870D01*
X77368055Y-80340981D01*
X77470616Y-80393239D01*
X77470618Y-80393239D01*
X77470621Y-80393241D01*
X77710215Y-80471090D01*
X77959038Y-80510500D01*
X77959039Y-80510500D01*
X78210961Y-80510500D01*
X78210962Y-80510500D01*
X78459785Y-80471090D01*
X78699379Y-80393241D01*
X78923845Y-80278870D01*
X79127656Y-80130793D01*
X79305793Y-79952656D01*
X79453870Y-79748845D01*
X79568241Y-79524379D01*
X79646090Y-79284785D01*
X79685500Y-79035962D01*
X79685500Y-78784038D01*
X79646090Y-78535215D01*
X79568241Y-78295621D01*
X79568239Y-78295618D01*
X79568239Y-78295616D01*
X79526747Y-78214184D01*
X79453870Y-78071155D01*
X79434952Y-78045117D01*
X79305798Y-77867350D01*
X79305794Y-77867345D01*
X79127654Y-77689205D01*
X79127649Y-77689201D01*
X78923848Y-77541132D01*
X78923847Y-77541131D01*
X78923845Y-77541130D01*
X78853747Y-77505413D01*
X78699383Y-77426760D01*
X78459785Y-77348910D01*
X78210962Y-77309500D01*
X77959038Y-77309500D01*
X77834626Y-77329205D01*
X77710214Y-77348910D01*
X77470616Y-77426760D01*
X77246151Y-77541132D01*
X77042350Y-77689201D01*
X77042345Y-77689205D01*
X76864205Y-77867345D01*
X76864201Y-77867350D01*
X76716132Y-78071151D01*
X76601760Y-78295616D01*
X76523910Y-78535214D01*
X76484500Y-78784038D01*
X66000500Y-78784038D01*
X66000500Y-64958389D01*
X69364500Y-64958389D01*
X69364500Y-65131611D01*
X69391598Y-65302701D01*
X69445127Y-65467445D01*
X69523768Y-65621788D01*
X69625586Y-65761928D01*
X69748072Y-65884414D01*
X69888212Y-65986232D01*
X70042555Y-66064873D01*
X70207299Y-66118402D01*
X70378389Y-66145500D01*
X70378390Y-66145500D01*
X70551610Y-66145500D01*
X70551611Y-66145500D01*
X70722701Y-66118402D01*
X70887445Y-66064873D01*
X71041788Y-65986232D01*
X71181928Y-65884414D01*
X71304414Y-65761928D01*
X71406232Y-65621788D01*
X71484873Y-65467445D01*
X71538402Y-65302701D01*
X71565500Y-65131611D01*
X71565500Y-64958389D01*
X71555854Y-64897486D01*
X73294500Y-64897486D01*
X73294500Y-65192513D01*
X73321208Y-65395370D01*
X73333007Y-65484993D01*
X73407212Y-65761930D01*
X73409361Y-65769951D01*
X73409364Y-65769961D01*
X73522254Y-66042500D01*
X73522258Y-66042510D01*
X73669761Y-66297993D01*
X73849352Y-66532040D01*
X73849358Y-66532047D01*
X74057952Y-66740641D01*
X74057959Y-66740647D01*
X74292006Y-66920238D01*
X74547489Y-67067741D01*
X74547490Y-67067741D01*
X74547493Y-67067743D01*
X74652922Y-67111413D01*
X74764185Y-67157500D01*
X74820048Y-67180639D01*
X75105007Y-67256993D01*
X75397494Y-67295500D01*
X75397501Y-67295500D01*
X75692499Y-67295500D01*
X75692506Y-67295500D01*
X75984993Y-67256993D01*
X76269952Y-67180639D01*
X76542507Y-67067743D01*
X76797994Y-66920238D01*
X77032042Y-66740646D01*
X77240646Y-66532042D01*
X77420238Y-66297994D01*
X77567743Y-66042507D01*
X77680639Y-65769952D01*
X77756993Y-65484993D01*
X77795500Y-65192506D01*
X77795500Y-64958389D01*
X79524500Y-64958389D01*
X79524500Y-65131611D01*
X79551598Y-65302701D01*
X79605127Y-65467445D01*
X79683768Y-65621788D01*
X79785586Y-65761928D01*
X79908072Y-65884414D01*
X80048212Y-65986232D01*
X80202555Y-66064873D01*
X80367299Y-66118402D01*
X80538389Y-66145500D01*
X80538390Y-66145500D01*
X80711610Y-66145500D01*
X80711611Y-66145500D01*
X80882701Y-66118402D01*
X81047445Y-66064873D01*
X81201788Y-65986232D01*
X81341928Y-65884414D01*
X81464414Y-65761928D01*
X81566232Y-65621788D01*
X81644873Y-65467445D01*
X81698402Y-65302701D01*
X81725500Y-65131611D01*
X81725500Y-64958389D01*
X81698402Y-64787299D01*
X81644873Y-64622555D01*
X81566232Y-64468212D01*
X81464414Y-64328072D01*
X81341928Y-64205586D01*
X81201788Y-64103768D01*
X81047445Y-64025127D01*
X80882701Y-63971598D01*
X80882699Y-63971597D01*
X80882698Y-63971597D01*
X80751271Y-63950781D01*
X80711611Y-63944500D01*
X80538389Y-63944500D01*
X80498728Y-63950781D01*
X80367302Y-63971597D01*
X80202552Y-64025128D01*
X80048211Y-64103768D01*
X79992115Y-64144525D01*
X79908072Y-64205586D01*
X79908070Y-64205588D01*
X79908069Y-64205588D01*
X79785588Y-64328069D01*
X79785588Y-64328070D01*
X79785586Y-64328072D01*
X79741859Y-64388256D01*
X79683768Y-64468211D01*
X79605128Y-64622552D01*
X79551597Y-64787302D01*
X79531052Y-64917019D01*
X79524500Y-64958389D01*
X77795500Y-64958389D01*
X77795500Y-64897494D01*
X77756993Y-64605007D01*
X77680639Y-64320048D01*
X77567743Y-64047493D01*
X77517604Y-63960650D01*
X77420238Y-63792006D01*
X77240647Y-63557959D01*
X77240641Y-63557952D01*
X77032047Y-63349358D01*
X77032040Y-63349352D01*
X76797993Y-63169761D01*
X76542510Y-63022258D01*
X76542500Y-63022254D01*
X76269961Y-62909364D01*
X76269954Y-62909362D01*
X76269952Y-62909361D01*
X75984993Y-62833007D01*
X75936113Y-62826571D01*
X75692513Y-62794500D01*
X75692506Y-62794500D01*
X75397494Y-62794500D01*
X75397486Y-62794500D01*
X75119085Y-62831153D01*
X75105007Y-62833007D01*
X74930861Y-62879669D01*
X74820048Y-62909361D01*
X74820038Y-62909364D01*
X74547499Y-63022254D01*
X74547489Y-63022258D01*
X74292006Y-63169761D01*
X74057959Y-63349352D01*
X74057952Y-63349358D01*
X73849358Y-63557952D01*
X73849352Y-63557959D01*
X73669761Y-63792006D01*
X73522258Y-64047489D01*
X73522254Y-64047499D01*
X73409364Y-64320038D01*
X73409361Y-64320048D01*
X73342009Y-64571413D01*
X73333008Y-64605004D01*
X73333006Y-64605015D01*
X73294500Y-64897486D01*
X71555854Y-64897486D01*
X71538402Y-64787299D01*
X71484873Y-64622555D01*
X71406232Y-64468212D01*
X71304414Y-64328072D01*
X71251882Y-64275540D01*
X71218397Y-64214217D01*
X71223381Y-64144525D01*
X71265253Y-64088592D01*
X71330717Y-64064175D01*
X71358961Y-64065386D01*
X71609072Y-64105000D01*
X71860928Y-64105000D01*
X72109669Y-64065602D01*
X72349184Y-63987780D01*
X72573575Y-63873446D01*
X72573581Y-63873442D01*
X72675697Y-63799250D01*
X72675698Y-63799250D01*
X72059025Y-63182578D01*
X72090258Y-63169641D01*
X72213097Y-63087563D01*
X72317563Y-62983097D01*
X72399641Y-62860258D01*
X72412577Y-62829025D01*
X73029250Y-63445698D01*
X73029250Y-63445697D01*
X73103442Y-63343581D01*
X73103446Y-63343575D01*
X73217780Y-63119184D01*
X73295602Y-62879669D01*
X73335000Y-62630928D01*
X73335000Y-62379071D01*
X73295602Y-62130330D01*
X73217780Y-61890815D01*
X73103442Y-61666416D01*
X73029250Y-61564301D01*
X73029250Y-61564300D01*
X72412577Y-62180973D01*
X72399641Y-62149742D01*
X72317563Y-62026903D01*
X72213097Y-61922437D01*
X72090258Y-61840359D01*
X72059024Y-61827421D01*
X72675698Y-61210748D01*
X72573583Y-61136557D01*
X72349184Y-61022219D01*
X72109669Y-60944397D01*
X71860928Y-60905000D01*
X71609072Y-60905000D01*
X71360330Y-60944397D01*
X71120815Y-61022219D01*
X70896413Y-61136559D01*
X70794301Y-61210747D01*
X70794300Y-61210748D01*
X71410974Y-61827421D01*
X71379742Y-61840359D01*
X71256903Y-61922437D01*
X71152437Y-62026903D01*
X71070359Y-62149742D01*
X71057421Y-62180974D01*
X70440748Y-61564300D01*
X70440747Y-61564301D01*
X70366559Y-61666413D01*
X70252219Y-61890815D01*
X70174397Y-62130330D01*
X70135000Y-62379071D01*
X70135000Y-62630928D01*
X70174397Y-62879669D01*
X70252219Y-63119184D01*
X70366557Y-63343583D01*
X70440748Y-63445697D01*
X70440748Y-63445698D01*
X71057421Y-62829024D01*
X71070359Y-62860258D01*
X71152437Y-62983097D01*
X71256903Y-63087563D01*
X71379742Y-63169641D01*
X71410974Y-63182577D01*
X70794300Y-63799250D01*
X70796598Y-63828449D01*
X70782233Y-63896827D01*
X70733181Y-63946583D01*
X70665016Y-63961921D01*
X70653583Y-63960650D01*
X70551611Y-63944500D01*
X70378389Y-63944500D01*
X70338728Y-63950781D01*
X70207302Y-63971597D01*
X70042552Y-64025128D01*
X69888211Y-64103768D01*
X69832115Y-64144525D01*
X69748072Y-64205586D01*
X69748070Y-64205588D01*
X69748069Y-64205588D01*
X69625588Y-64328069D01*
X69625588Y-64328070D01*
X69625586Y-64328072D01*
X69581859Y-64388256D01*
X69523768Y-64468211D01*
X69445128Y-64622552D01*
X69391597Y-64787302D01*
X69371052Y-64917019D01*
X69364500Y-64958389D01*
X66000500Y-64958389D01*
X66000500Y-59839038D01*
X76484500Y-59839038D01*
X76484500Y-60090962D01*
X76492040Y-60138567D01*
X76523910Y-60339785D01*
X76601760Y-60579383D01*
X76663544Y-60700639D01*
X76714171Y-60800001D01*
X76716132Y-60803848D01*
X76864201Y-61007649D01*
X76864205Y-61007654D01*
X77042345Y-61185794D01*
X77042350Y-61185798D01*
X77220117Y-61314952D01*
X77246155Y-61333870D01*
X77389184Y-61406747D01*
X77470616Y-61448239D01*
X77470618Y-61448239D01*
X77470621Y-61448241D01*
X77710215Y-61526090D01*
X77959038Y-61565500D01*
X77959039Y-61565500D01*
X78210961Y-61565500D01*
X78210962Y-61565500D01*
X78459785Y-61526090D01*
X78699379Y-61448241D01*
X78923845Y-61333870D01*
X79127656Y-61185793D01*
X79305793Y-61007656D01*
X79453870Y-60803845D01*
X79568241Y-60579379D01*
X79646090Y-60339785D01*
X79685500Y-60090962D01*
X79685500Y-59839038D01*
X79646090Y-59590215D01*
X79568241Y-59350621D01*
X79568239Y-59350618D01*
X79568239Y-59350616D01*
X79503205Y-59222981D01*
X79453870Y-59126155D01*
X79422127Y-59082464D01*
X79305798Y-58922350D01*
X79305794Y-58922345D01*
X79127654Y-58744205D01*
X79127649Y-58744201D01*
X78923848Y-58596132D01*
X78923847Y-58596131D01*
X78923845Y-58596130D01*
X78844371Y-58555636D01*
X78699383Y-58481760D01*
X78459785Y-58403910D01*
X78210962Y-58364500D01*
X77959038Y-58364500D01*
X77834626Y-58384205D01*
X77710214Y-58403910D01*
X77470616Y-58481760D01*
X77246151Y-58596132D01*
X77042350Y-58744201D01*
X77042345Y-58744205D01*
X76864205Y-58922345D01*
X76864201Y-58922350D01*
X76716132Y-59126151D01*
X76601760Y-59350616D01*
X76523910Y-59590214D01*
X76503320Y-59720213D01*
X76484500Y-59839038D01*
X66000500Y-59839038D01*
X66000500Y-58160639D01*
X86997500Y-58160639D01*
X86997500Y-58359360D01*
X87028587Y-58555637D01*
X87089993Y-58744629D01*
X87089994Y-58744632D01*
X87180213Y-58921694D01*
X87297019Y-59082464D01*
X87437536Y-59222981D01*
X87598306Y-59339787D01*
X87716832Y-59400179D01*
X87754780Y-59419515D01*
X87805576Y-59467490D01*
X87822371Y-59535311D01*
X87799833Y-59601446D01*
X87754780Y-59640485D01*
X87598305Y-59720213D01*
X87437533Y-59837021D01*
X87297021Y-59977533D01*
X87180213Y-60138305D01*
X87089994Y-60315367D01*
X87089993Y-60315370D01*
X87028587Y-60504362D01*
X86997500Y-60700639D01*
X86997500Y-60899360D01*
X87028587Y-61095637D01*
X87089993Y-61284629D01*
X87089994Y-61284632D01*
X87173357Y-61448239D01*
X87180213Y-61461694D01*
X87297019Y-61622464D01*
X87437536Y-61762981D01*
X87598306Y-61879787D01*
X87619950Y-61890815D01*
X87754780Y-61959515D01*
X87805576Y-62007490D01*
X87822371Y-62075311D01*
X87799833Y-62141446D01*
X87754780Y-62180485D01*
X87598305Y-62260213D01*
X87437533Y-62377021D01*
X87297021Y-62517533D01*
X87180213Y-62678305D01*
X87089994Y-62855367D01*
X87089993Y-62855370D01*
X87028587Y-63044362D01*
X86997500Y-63240639D01*
X86997500Y-63439360D01*
X87028587Y-63635637D01*
X87089993Y-63824629D01*
X87089994Y-63824632D01*
X87164878Y-63971597D01*
X87180213Y-64001694D01*
X87297019Y-64162464D01*
X87437536Y-64302981D01*
X87598306Y-64419787D01*
X87693343Y-64468211D01*
X87754780Y-64499515D01*
X87805576Y-64547490D01*
X87822371Y-64615311D01*
X87799833Y-64681446D01*
X87754780Y-64720485D01*
X87598305Y-64800213D01*
X87437533Y-64917021D01*
X87297021Y-65057533D01*
X87180213Y-65218305D01*
X87089994Y-65395367D01*
X87089993Y-65395370D01*
X87028587Y-65584362D01*
X87000464Y-65761928D01*
X86997500Y-65780639D01*
X86997500Y-65979361D01*
X87011044Y-66064873D01*
X87028587Y-66175637D01*
X87089993Y-66364629D01*
X87089994Y-66364632D01*
X87175294Y-66532040D01*
X87180213Y-66541694D01*
X87297019Y-66702464D01*
X87437536Y-66842981D01*
X87598306Y-66959787D01*
X87716832Y-67020179D01*
X87754780Y-67039515D01*
X87805576Y-67087490D01*
X87822371Y-67155311D01*
X87799833Y-67221446D01*
X87754780Y-67260485D01*
X87598305Y-67340213D01*
X87437533Y-67457021D01*
X87297021Y-67597533D01*
X87180213Y-67758305D01*
X87089994Y-67935367D01*
X87089993Y-67935370D01*
X87028587Y-68124362D01*
X86997500Y-68320639D01*
X86997500Y-68519360D01*
X87028587Y-68715637D01*
X87089993Y-68904629D01*
X87089994Y-68904632D01*
X87180213Y-69081694D01*
X87297019Y-69242464D01*
X87437536Y-69382981D01*
X87598306Y-69499787D01*
X87716832Y-69560179D01*
X87754780Y-69579515D01*
X87805576Y-69627490D01*
X87822371Y-69695311D01*
X87799833Y-69761446D01*
X87754780Y-69800485D01*
X87598305Y-69880213D01*
X87437533Y-69997021D01*
X87297021Y-70137533D01*
X87180213Y-70298305D01*
X87089994Y-70475367D01*
X87089993Y-70475370D01*
X87028587Y-70664362D01*
X86997500Y-70860639D01*
X86997500Y-71059360D01*
X87028587Y-71255637D01*
X87089993Y-71444629D01*
X87089994Y-71444632D01*
X87180213Y-71621694D01*
X87297019Y-71782464D01*
X87437536Y-71922981D01*
X87598306Y-72039787D01*
X87716832Y-72100179D01*
X87754780Y-72119515D01*
X87805576Y-72167490D01*
X87822371Y-72235311D01*
X87799833Y-72301446D01*
X87754780Y-72340485D01*
X87598305Y-72420213D01*
X87437533Y-72537021D01*
X87297021Y-72677533D01*
X87180213Y-72838305D01*
X87089994Y-73015367D01*
X87089993Y-73015370D01*
X87028587Y-73204362D01*
X86997500Y-73400639D01*
X86997500Y-73599360D01*
X87028587Y-73795637D01*
X87089993Y-73984629D01*
X87089994Y-73984632D01*
X87180213Y-74161694D01*
X87297019Y-74322464D01*
X87437536Y-74462981D01*
X87598306Y-74579787D01*
X87685149Y-74624035D01*
X87775367Y-74670005D01*
X87775370Y-74670006D01*
X87869866Y-74700709D01*
X87964364Y-74731413D01*
X88160639Y-74762500D01*
X88160640Y-74762500D01*
X88359360Y-74762500D01*
X88359361Y-74762500D01*
X88555636Y-74731413D01*
X88744632Y-74670005D01*
X88921694Y-74579787D01*
X89082464Y-74462981D01*
X89222981Y-74322464D01*
X89339787Y-74161694D01*
X89430005Y-73984632D01*
X89491413Y-73795636D01*
X89522500Y-73599361D01*
X89522500Y-73400639D01*
X89491413Y-73204364D01*
X89430005Y-73015368D01*
X89430005Y-73015367D01*
X89339786Y-72838305D01*
X89222981Y-72677536D01*
X89082464Y-72537019D01*
X88921694Y-72420213D01*
X88765218Y-72340484D01*
X88714423Y-72292510D01*
X88697628Y-72224689D01*
X88720165Y-72158554D01*
X88765218Y-72119515D01*
X88921694Y-72039787D01*
X89082464Y-71922981D01*
X89222981Y-71782464D01*
X89339787Y-71621694D01*
X89430005Y-71444632D01*
X89491413Y-71255636D01*
X89522500Y-71059361D01*
X89522500Y-70860639D01*
X89491413Y-70664364D01*
X89430005Y-70475368D01*
X89430005Y-70475367D01*
X89339786Y-70298305D01*
X89222981Y-70137536D01*
X89082464Y-69997019D01*
X88921694Y-69880213D01*
X88765218Y-69800484D01*
X88714423Y-69752510D01*
X88697628Y-69684689D01*
X88720165Y-69618554D01*
X88765218Y-69579515D01*
X88921694Y-69499787D01*
X89082464Y-69382981D01*
X89222981Y-69242464D01*
X89339787Y-69081694D01*
X89430005Y-68904632D01*
X89491413Y-68715636D01*
X89522500Y-68519361D01*
X89522500Y-68320639D01*
X89491413Y-68124364D01*
X89430005Y-67935368D01*
X89430005Y-67935367D01*
X89339786Y-67758305D01*
X89222981Y-67597536D01*
X89082464Y-67457019D01*
X88921694Y-67340213D01*
X88765218Y-67260484D01*
X88714423Y-67212510D01*
X88697628Y-67144689D01*
X88720165Y-67078554D01*
X88765218Y-67039515D01*
X88921694Y-66959787D01*
X89082464Y-66842981D01*
X89222981Y-66702464D01*
X89339787Y-66541694D01*
X89430005Y-66364632D01*
X89491413Y-66175636D01*
X89522500Y-65979361D01*
X89522500Y-65780639D01*
X89491413Y-65584364D01*
X89430005Y-65395368D01*
X89430005Y-65395367D01*
X89339786Y-65218305D01*
X89321037Y-65192499D01*
X89222981Y-65057536D01*
X89082464Y-64917019D01*
X88921694Y-64800213D01*
X88765218Y-64720484D01*
X88714423Y-64672510D01*
X88697628Y-64604689D01*
X88720165Y-64538554D01*
X88765218Y-64499515D01*
X88921694Y-64419787D01*
X89082464Y-64302981D01*
X89222981Y-64162464D01*
X89339787Y-64001694D01*
X89430005Y-63824632D01*
X89491413Y-63635636D01*
X89522500Y-63439361D01*
X89522500Y-63240639D01*
X89491413Y-63044364D01*
X89430005Y-62855368D01*
X89430005Y-62855367D01*
X89384035Y-62765149D01*
X89339787Y-62678306D01*
X89222981Y-62517536D01*
X89082464Y-62377019D01*
X88921694Y-62260213D01*
X88765218Y-62180484D01*
X88714423Y-62132510D01*
X88697628Y-62064689D01*
X88720165Y-61998554D01*
X88765218Y-61959515D01*
X88921694Y-61879787D01*
X89082464Y-61762981D01*
X89222981Y-61622464D01*
X89339787Y-61461694D01*
X89430005Y-61284632D01*
X89491413Y-61095636D01*
X89522500Y-60899361D01*
X89522500Y-60700639D01*
X89491413Y-60504364D01*
X89443045Y-60355500D01*
X89430006Y-60315370D01*
X89430005Y-60315367D01*
X89384035Y-60225149D01*
X89339787Y-60138306D01*
X89222981Y-59977536D01*
X89082464Y-59837019D01*
X88921694Y-59720213D01*
X88765218Y-59640484D01*
X88714423Y-59592510D01*
X88697628Y-59524689D01*
X88720165Y-59458554D01*
X88765218Y-59419515D01*
X88921694Y-59339787D01*
X89082464Y-59222981D01*
X89222981Y-59082464D01*
X89339787Y-58921694D01*
X89430005Y-58744632D01*
X89491413Y-58555636D01*
X89522500Y-58359361D01*
X89522500Y-58160639D01*
X102237500Y-58160639D01*
X102237500Y-58359360D01*
X102268587Y-58555637D01*
X102329993Y-58744629D01*
X102329994Y-58744632D01*
X102420213Y-58921694D01*
X102537019Y-59082464D01*
X102677536Y-59222981D01*
X102838306Y-59339787D01*
X102995332Y-59419796D01*
X103046127Y-59467769D01*
X103062922Y-59535590D01*
X103040385Y-59601725D01*
X102995332Y-59640764D01*
X102838566Y-59720641D01*
X102801283Y-59747729D01*
X102801282Y-59747730D01*
X103415906Y-60362352D01*
X103328429Y-60385792D01*
X103227070Y-60444311D01*
X103144311Y-60527070D01*
X103085792Y-60628429D01*
X103062352Y-60715905D01*
X102447730Y-60101282D01*
X102447729Y-60101283D01*
X102420643Y-60138564D01*
X102330457Y-60315562D01*
X102269075Y-60504476D01*
X102269075Y-60504479D01*
X102238000Y-60700678D01*
X102238000Y-60899321D01*
X102269075Y-61095520D01*
X102269075Y-61095523D01*
X102330457Y-61284437D01*
X102420641Y-61461432D01*
X102447730Y-61498715D01*
X102447731Y-61498716D01*
X103062352Y-60884094D01*
X103085792Y-60971571D01*
X103144311Y-61072930D01*
X103227070Y-61155689D01*
X103328429Y-61214208D01*
X103415905Y-61237647D01*
X102801283Y-61852268D01*
X102801283Y-61852269D01*
X102838567Y-61879358D01*
X102995331Y-61959234D01*
X103046127Y-62007209D01*
X103062922Y-62075030D01*
X103040384Y-62141165D01*
X102995331Y-62180204D01*
X102838305Y-62260213D01*
X102677533Y-62377021D01*
X102537021Y-62517533D01*
X102420213Y-62678305D01*
X102329994Y-62855367D01*
X102329993Y-62855370D01*
X102268587Y-63044362D01*
X102237500Y-63240639D01*
X102237500Y-63439360D01*
X102268587Y-63635637D01*
X102329993Y-63824629D01*
X102329994Y-63824632D01*
X102404878Y-63971597D01*
X102420213Y-64001694D01*
X102537019Y-64162464D01*
X102677536Y-64302981D01*
X102838306Y-64419787D01*
X102933343Y-64468211D01*
X102994780Y-64499515D01*
X103045576Y-64547490D01*
X103062371Y-64615311D01*
X103039833Y-64681446D01*
X102994780Y-64720485D01*
X102838305Y-64800213D01*
X102677533Y-64917021D01*
X102537021Y-65057533D01*
X102420213Y-65218305D01*
X102329994Y-65395367D01*
X102329993Y-65395370D01*
X102268587Y-65584362D01*
X102240464Y-65761928D01*
X102237500Y-65780639D01*
X102237500Y-65979361D01*
X102251044Y-66064873D01*
X102268587Y-66175637D01*
X102329993Y-66364629D01*
X102329994Y-66364632D01*
X102415294Y-66532040D01*
X102420213Y-66541694D01*
X102537019Y-66702464D01*
X102677536Y-66842981D01*
X102838306Y-66959787D01*
X102956832Y-67020179D01*
X102994780Y-67039515D01*
X103045576Y-67087490D01*
X103062371Y-67155311D01*
X103039833Y-67221446D01*
X102994780Y-67260485D01*
X102838305Y-67340213D01*
X102677533Y-67457021D01*
X102537021Y-67597533D01*
X102420213Y-67758305D01*
X102329994Y-67935367D01*
X102329993Y-67935370D01*
X102268587Y-68124362D01*
X102237500Y-68320639D01*
X102237500Y-68519360D01*
X102268587Y-68715637D01*
X102329993Y-68904629D01*
X102329994Y-68904632D01*
X102420213Y-69081694D01*
X102537019Y-69242464D01*
X102677536Y-69382981D01*
X102838306Y-69499787D01*
X102956832Y-69560179D01*
X102994780Y-69579515D01*
X103045576Y-69627490D01*
X103062371Y-69695311D01*
X103039833Y-69761446D01*
X102994780Y-69800485D01*
X102838305Y-69880213D01*
X102677533Y-69997021D01*
X102537021Y-70137533D01*
X102420213Y-70298305D01*
X102329994Y-70475367D01*
X102329993Y-70475370D01*
X102268587Y-70664362D01*
X102237500Y-70860639D01*
X102237500Y-71059360D01*
X102268587Y-71255637D01*
X102329993Y-71444629D01*
X102329994Y-71444632D01*
X102420213Y-71621694D01*
X102537019Y-71782464D01*
X102677536Y-71922981D01*
X102838306Y-72039787D01*
X102956832Y-72100179D01*
X102994780Y-72119515D01*
X103045576Y-72167490D01*
X103062371Y-72235311D01*
X103039833Y-72301446D01*
X102994780Y-72340485D01*
X102838305Y-72420213D01*
X102677533Y-72537021D01*
X102537021Y-72677533D01*
X102420213Y-72838305D01*
X102329994Y-73015367D01*
X102329993Y-73015370D01*
X102268587Y-73204362D01*
X102237500Y-73400639D01*
X102237500Y-73599360D01*
X102268587Y-73795637D01*
X102329993Y-73984629D01*
X102329994Y-73984632D01*
X102420213Y-74161694D01*
X102537019Y-74322464D01*
X102677536Y-74462981D01*
X102838306Y-74579787D01*
X102925149Y-74624035D01*
X103015367Y-74670005D01*
X103015370Y-74670006D01*
X103109866Y-74700709D01*
X103204364Y-74731413D01*
X103400639Y-74762500D01*
X103400640Y-74762500D01*
X103599360Y-74762500D01*
X103599361Y-74762500D01*
X103795636Y-74731413D01*
X103984632Y-74670005D01*
X104161694Y-74579787D01*
X104322464Y-74462981D01*
X104462981Y-74322464D01*
X104579787Y-74161694D01*
X104670005Y-73984632D01*
X104731413Y-73795636D01*
X104762500Y-73599361D01*
X104762500Y-73400639D01*
X104731413Y-73204364D01*
X104670005Y-73015368D01*
X104670005Y-73015367D01*
X104579786Y-72838305D01*
X104462981Y-72677536D01*
X104322464Y-72537019D01*
X104161694Y-72420213D01*
X104005218Y-72340484D01*
X103954423Y-72292510D01*
X103937628Y-72224689D01*
X103960165Y-72158554D01*
X104005218Y-72119515D01*
X104161694Y-72039787D01*
X104322464Y-71922981D01*
X104462981Y-71782464D01*
X104579787Y-71621694D01*
X104670005Y-71444632D01*
X104731413Y-71255636D01*
X104762500Y-71059361D01*
X104762500Y-70860639D01*
X104731413Y-70664364D01*
X104670005Y-70475368D01*
X104670005Y-70475367D01*
X104579786Y-70298305D01*
X104462981Y-70137536D01*
X104322464Y-69997019D01*
X104161694Y-69880213D01*
X104005218Y-69800484D01*
X103954423Y-69752510D01*
X103937628Y-69684689D01*
X103960165Y-69618554D01*
X104005218Y-69579515D01*
X104161694Y-69499787D01*
X104322464Y-69382981D01*
X104462981Y-69242464D01*
X104579787Y-69081694D01*
X104670005Y-68904632D01*
X104731413Y-68715636D01*
X104762500Y-68519361D01*
X104762500Y-68320639D01*
X104731413Y-68124364D01*
X104670005Y-67935368D01*
X104670005Y-67935367D01*
X104579786Y-67758305D01*
X104462981Y-67597536D01*
X104322464Y-67457019D01*
X104161694Y-67340213D01*
X104005218Y-67260484D01*
X103954423Y-67212510D01*
X103937628Y-67144689D01*
X103960165Y-67078554D01*
X104005218Y-67039515D01*
X104161694Y-66959787D01*
X104322464Y-66842981D01*
X104462981Y-66702464D01*
X104579787Y-66541694D01*
X104670005Y-66364632D01*
X104731413Y-66175636D01*
X104762500Y-65979361D01*
X104762500Y-65780639D01*
X104731413Y-65584364D01*
X104670005Y-65395368D01*
X104670005Y-65395367D01*
X104579786Y-65218305D01*
X104561037Y-65192499D01*
X104462981Y-65057536D01*
X104322464Y-64917019D01*
X104161694Y-64800213D01*
X104005218Y-64720484D01*
X103954423Y-64672510D01*
X103937628Y-64604689D01*
X103960165Y-64538554D01*
X104005218Y-64499515D01*
X104161694Y-64419787D01*
X104322464Y-64302981D01*
X104462981Y-64162464D01*
X104579787Y-64001694D01*
X104670005Y-63824632D01*
X104731413Y-63635636D01*
X104762500Y-63439361D01*
X104762500Y-63240639D01*
X104731413Y-63044364D01*
X104670005Y-62855368D01*
X104670005Y-62855367D01*
X104624035Y-62765149D01*
X104579787Y-62678306D01*
X104462981Y-62517536D01*
X104322464Y-62377019D01*
X104161694Y-62260213D01*
X104004667Y-62180203D01*
X103953872Y-62132229D01*
X103937077Y-62064408D01*
X103959614Y-61998273D01*
X104004669Y-61959234D01*
X104161422Y-61879364D01*
X104198716Y-61852268D01*
X103584095Y-61237647D01*
X103671571Y-61214208D01*
X103772930Y-61155689D01*
X103855689Y-61072930D01*
X103914208Y-60971571D01*
X103937647Y-60884094D01*
X104552268Y-61498715D01*
X104579362Y-61461425D01*
X104669542Y-61284437D01*
X104730924Y-61095523D01*
X104730924Y-61095520D01*
X104762000Y-60899321D01*
X104762000Y-60700678D01*
X104730924Y-60504479D01*
X104730924Y-60504476D01*
X104669542Y-60315562D01*
X104579358Y-60138567D01*
X104552268Y-60101283D01*
X103937647Y-60715904D01*
X103914208Y-60628429D01*
X103855689Y-60527070D01*
X103772930Y-60444311D01*
X103671571Y-60385792D01*
X103584094Y-60362352D01*
X104198716Y-59747731D01*
X104198715Y-59747730D01*
X104161432Y-59720641D01*
X104004668Y-59640765D01*
X103953872Y-59592790D01*
X103937077Y-59524969D01*
X103959615Y-59458834D01*
X104004667Y-59419796D01*
X104161694Y-59339787D01*
X104322464Y-59222981D01*
X104462981Y-59082464D01*
X104579787Y-58921694D01*
X104670005Y-58744632D01*
X104731413Y-58555636D01*
X104762500Y-58359361D01*
X104762500Y-58160639D01*
X104731413Y-57964364D01*
X104670005Y-57775368D01*
X104670005Y-57775367D01*
X104579786Y-57598305D01*
X104462981Y-57437536D01*
X104322464Y-57297019D01*
X104161694Y-57180213D01*
X103984632Y-57089994D01*
X103984629Y-57089993D01*
X103795637Y-57028587D01*
X103697498Y-57013043D01*
X103599361Y-56997500D01*
X103400639Y-56997500D01*
X103335214Y-57007862D01*
X103204362Y-57028587D01*
X103015370Y-57089993D01*
X103015367Y-57089994D01*
X102838305Y-57180213D01*
X102677533Y-57297021D01*
X102537021Y-57437533D01*
X102420213Y-57598305D01*
X102329994Y-57775367D01*
X102329993Y-57775370D01*
X102268587Y-57964362D01*
X102237500Y-58160639D01*
X89522500Y-58160639D01*
X89491413Y-57964364D01*
X89430005Y-57775368D01*
X89430005Y-57775367D01*
X89339786Y-57598305D01*
X89222981Y-57437536D01*
X89082464Y-57297019D01*
X88921694Y-57180213D01*
X88744632Y-57089994D01*
X88744629Y-57089993D01*
X88555637Y-57028587D01*
X88457498Y-57013043D01*
X88359361Y-56997500D01*
X88160639Y-56997500D01*
X88095214Y-57007862D01*
X87964362Y-57028587D01*
X87775370Y-57089993D01*
X87775367Y-57089994D01*
X87598305Y-57180213D01*
X87437533Y-57297021D01*
X87297021Y-57437533D01*
X87180213Y-57598305D01*
X87089994Y-57775367D01*
X87089993Y-57775370D01*
X87028587Y-57964362D01*
X86997500Y-58160639D01*
X66000500Y-58160639D01*
X66000500Y-54506959D01*
X66001280Y-54493077D01*
X66001320Y-54492717D01*
X66011459Y-54402727D01*
X66017635Y-54375668D01*
X66045353Y-54296457D01*
X66057393Y-54271453D01*
X66102046Y-54200389D01*
X66119351Y-54178690D01*
X66178690Y-54119351D01*
X66200389Y-54102046D01*
X66271453Y-54057393D01*
X66296457Y-54045353D01*
X66375668Y-54017635D01*
X66402729Y-54011459D01*
X66478753Y-54002893D01*
X66493078Y-54001280D01*
X66506960Y-54000500D01*
X66565892Y-54000500D01*
X106434108Y-54000500D01*
X106493040Y-54000500D01*
X106506922Y-54001280D01*
G37*
%TD.AperFunction*%
%TD*%
M02*
