%TF.GenerationSoftware,KiCad,Pcbnew,10.0.2*%
%TF.CreationDate,2026-06-18T19:51:29-05:00*%
%TF.ProjectId,shayfinder,73686179-6669-46e6-9465-722e6b696361,rev?*%
%TF.SameCoordinates,Original*%
%TF.FileFunction,Soldermask,Top*%
%TF.FilePolarity,Negative*%
%FSLAX46Y46*%
G04 Gerber Fmt 4.6, Leading zero omitted, Abs format (unit mm)*
G04 Created by KiCad (PCBNEW 10.0.2) date 2026-06-18 19:51:29*
%MOMM*%
%LPD*%
G01*
G04 APERTURE LIST*
G04 Aperture macros list*
%AMRoundRect*
0 Rectangle with rounded corners*
0 $1 Rounding radius*
0 $2 $3 $4 $5 $6 $7 $8 $9 X,Y pos of 4 corners*
0 Add a 4 corners polygon primitive as box body*
4,1,4,$2,$3,$4,$5,$6,$7,$8,$9,$2,$3,0*
0 Add four circle primitives for the rounded corners*
1,1,$1+$1,$2,$3*
1,1,$1+$1,$4,$5*
1,1,$1+$1,$6,$7*
1,1,$1+$1,$8,$9*
0 Add four rect primitives between the rounded corners*
20,1,$1+$1,$2,$3,$4,$5,0*
20,1,$1+$1,$4,$5,$6,$7,0*
20,1,$1+$1,$6,$7,$8,$9,0*
20,1,$1+$1,$8,$9,$2,$3,0*%
G04 Aperture macros list end*
%ADD10C,1.700000*%
%ADD11C,4.000000*%
%ADD12C,2.200000*%
%ADD13R,1.800000X1.800000*%
%ADD14C,1.800000*%
%ADD15C,1.400000*%
%ADD16RoundRect,0.152400X1.063600X0.609600X-1.063600X0.609600X-1.063600X-0.609600X1.063600X-0.609600X0*%
%ADD17C,1.524000*%
%ADD18RoundRect,0.152400X-1.063600X-0.609600X1.063600X-0.609600X1.063600X0.609600X-1.063600X0.609600X0*%
G04 APERTURE END LIST*
D10*
%TO.C,SW3*%
X70340000Y-103000000D03*
D11*
X75420000Y-103000000D03*
D10*
X80500000Y-103000000D03*
D12*
X77960000Y-97920000D03*
X71610000Y-100460000D03*
%TD*%
D10*
%TO.C,SW2*%
X70465000Y-83990000D03*
D11*
X75545000Y-83990000D03*
D10*
X80625000Y-83990000D03*
D12*
X78085000Y-78910000D03*
X71735000Y-81450000D03*
%TD*%
D13*
%TO.C,D2*%
X87960000Y-86970000D03*
D14*
X90500000Y-86970000D03*
%TD*%
D10*
%TO.C,SW1*%
X70465000Y-65045000D03*
D11*
X75545000Y-65045000D03*
D10*
X80625000Y-65045000D03*
D12*
X78085000Y-59965000D03*
X71735000Y-62505000D03*
%TD*%
D15*
%TO.C,R1*%
X93650000Y-80340000D03*
X98730000Y-80340000D03*
%TD*%
%TO.C,R3*%
X93650000Y-86640000D03*
X98730000Y-86640000D03*
%TD*%
D13*
%TO.C,D3*%
X87960000Y-92440000D03*
D14*
X90500000Y-92440000D03*
%TD*%
D16*
%TO.C,U1*%
X87425000Y-58260000D03*
D17*
X88260000Y-58260000D03*
D16*
X87425000Y-60800000D03*
D17*
X88260000Y-60800000D03*
D16*
X87425000Y-63340000D03*
D17*
X88260000Y-63340000D03*
D16*
X87425000Y-65880000D03*
D17*
X88260000Y-65880000D03*
D16*
X87425000Y-68420000D03*
D17*
X88260000Y-68420000D03*
D16*
X87425000Y-70960000D03*
D17*
X88260000Y-70960000D03*
D16*
X87425000Y-73500000D03*
D17*
X88260000Y-73500000D03*
X103500000Y-73500000D03*
D18*
X104335000Y-73500000D03*
D17*
X103500000Y-70960000D03*
D18*
X104335000Y-70960000D03*
D17*
X103500000Y-68420000D03*
D18*
X104335000Y-68420000D03*
D17*
X103500000Y-65880000D03*
D18*
X104335000Y-65880000D03*
D17*
X103500000Y-63340000D03*
D18*
X104335000Y-63340000D03*
D17*
X103500000Y-60800000D03*
D18*
X104335000Y-60800000D03*
D17*
X103500000Y-58260000D03*
D18*
X104335000Y-58260000D03*
%TD*%
D15*
%TO.C,R2*%
X93650000Y-83490000D03*
X98730000Y-83490000D03*
%TD*%
D13*
%TO.C,D1*%
X87960000Y-81500000D03*
D14*
X90500000Y-81500000D03*
%TD*%
M02*
