%TF.GenerationSoftware,KiCad,Pcbnew,10.0.2*%
%TF.CreationDate,2026-06-18T19:51:29-05:00*%
%TF.ProjectId,shayfinder,73686179-6669-46e6-9465-722e6b696361,rev?*%
%TF.SameCoordinates,Original*%
%TF.FileFunction,Legend,Bot*%
%TF.FilePolarity,Positive*%
%FSLAX46Y46*%
G04 Gerber Fmt 4.6, Leading zero omitted, Abs format (unit mm)*
G04 Created by KiCad (PCBNEW 10.0.2) date 2026-06-18 19:51:29*
%MOMM*%
%LPD*%
G01*
G04 APERTURE LIST*
%ADD10C,1.700000*%
%ADD11C,4.000000*%
%ADD12C,2.200000*%
%ADD13R,1.800000X1.800000*%
%ADD14C,1.800000*%
%ADD15C,1.400000*%
%ADD16C,1.524000*%
G04 APERTURE END LIST*
%LPC*%
D10*
%TO.C,SW3*%
X70340000Y-103000000D03*
D11*
X75420000Y-103000000D03*
D10*
X80500000Y-103000000D03*
D12*
X77960000Y-97920000D03*
X71610000Y-100460000D03*
%TD*%
D10*
%TO.C,SW2*%
X70465000Y-83990000D03*
D11*
X75545000Y-83990000D03*
D10*
X80625000Y-83990000D03*
D12*
X78085000Y-78910000D03*
X71735000Y-81450000D03*
%TD*%
D13*
%TO.C,D2*%
X87960000Y-86970000D03*
D14*
X90500000Y-86970000D03*
%TD*%
D10*
%TO.C,SW1*%
X70465000Y-65045000D03*
D11*
X75545000Y-65045000D03*
D10*
X80625000Y-65045000D03*
D12*
X78085000Y-59965000D03*
X71735000Y-62505000D03*
%TD*%
D15*
%TO.C,R1*%
X93650000Y-80340000D03*
X98730000Y-80340000D03*
%TD*%
%TO.C,R3*%
X93650000Y-86640000D03*
X98730000Y-86640000D03*
%TD*%
D13*
%TO.C,D3*%
X87960000Y-92440000D03*
D14*
X90500000Y-92440000D03*
%TD*%
D16*
%TO.C,U1*%
X88260000Y-58260000D03*
X88260000Y-60800000D03*
X88260000Y-63340000D03*
X88260000Y-65880000D03*
X88260000Y-68420000D03*
X88260000Y-70960000D03*
X88260000Y-73500000D03*
X103500000Y-73500000D03*
X103500000Y-70960000D03*
X103500000Y-68420000D03*
X103500000Y-65880000D03*
X103500000Y-63340000D03*
X103500000Y-60800000D03*
X103500000Y-58260000D03*
%TD*%
D15*
%TO.C,R2*%
X93650000Y-83490000D03*
X98730000Y-83490000D03*
%TD*%
D13*
%TO.C,D1*%
X87960000Y-81500000D03*
D14*
X90500000Y-81500000D03*
%TD*%
%LPD*%
M02*
